<?xml version="1.0" encoding="UTF-8"?>
<svg xmlns="http://www.w3.org/2000/svg" width="100%" height="100%" viewBox="0 0 1175.26 1175.26" xmlns:xlink="http://www.w3.org/1999/xlink">
 <g>
  <path fill="red" fill-rule="nonzero" d="M-0 587.63c0,-162.55 57.44,-300.99 172.04,-415.59 114.6,-114.6 253.04,-172.04 415.59,-172.04 162.56,0 301,57.44 415.6,172.04 114.6,114.6 172.03,253.04 172.03,415.59 0,162.55 -57.43,300.99 -172.03,415.59 -114.6,114.6 -253.04,172.04 -415.6,172.04 -162.55,0 -300.99,-57.44 -415.59,-172.04 -114.6,-114.6 -172.04,-253.04 -172.04,-415.59zm277.97 366.56l147.92 0 0 -749.37 -248.7 21.13 3.25 74.77 97.53 0 0 653.47zm499.58 19.5c73.15,0 133.29,-36.3 180.43,-109.18 47.41,-72.6 70.99,-165.26 70.99,-277.42 0,-112.16 -23.58,-204.55 -70.99,-277.7 -47.14,-72.87 -107.28,-109.45 -180.43,-109.45 -73.42,0 -133.56,36.58 -181.25,109.45 -47.41,73.15 -71.25,165.54 -71.25,277.7 0,111.62 23.84,204 71.25,277.15 47.69,72.88 107.83,109.45 181.25,109.45zm0 -92.65c-67.46,0 -101.32,-97.8 -101.32,-293.41 0,-195.6 33.86,-293.41 101.32,-293.41 66.92,0 100.24,97.81 100.24,293.41 0,195.61 -33.32,293.41 -100.24,293.41z"/>
 </g>
</svg>
