<svg id="Layer_35" enable-background="new 0 0 64 64" height="512" viewBox="0 0 64 64" width="512" xmlns="http://www.w3.org/2000/svg"><path d="m48 13v10h-14v-12h14z" fill="#b4dd7f"/><path d="m34 29h14v12h-14z" fill="#e6e9ed"/><path d="m61 53-10 6v-6-6z" fill="#aab2bd"/><path d="m51 53v6h-29l-.04-.01c.03-.16.04-.32.04-.49v-5.5z" fill="#ffeaa7"/><path d="m22 47h29v6h-29z" fill="#ff826e"/><path d="m15 38v2 18.5c0 1.93-1.57 3.5-3.5 3.5-.96 0-1.84-.39-2.47-1.03-.64-.63-1.03-1.51-1.03-2.47v-20.5z" fill="#838f9b"/><path d="m22 53v5.5c0 .17-.01.33-.04.49-.23 1.7-1.7 3.01-3.46 3.01-.96 0-1.84-.39-2.47-1.03-.64-.63-1.03-1.51-1.03-2.47v-18.5-2h3v-4h4v6 7z" fill="#838f9b"/><path d="m18 24v10 4h-3-7v-5h5.5c.69 0 1.32-.28 1.77-.73s.73-1.08.73-1.77c0-1.38-1.12-2.5-2.5-2.5h-5.5v-4z" fill="#e6e9ed"/><path d="m22 34h-4v-10h-10v4h5.5c1.38 0 2.5 1.12 2.5 2.5 0 .69-.28 1.32-.73 1.77s-1.08.73-1.77.73h-5.5-2c-2.21 0-4-1.79-4-4v-3c0-5.52 4.48-10 10-10h3 2c5.52 0 10 4.48 10 10v10c0 2.21-1.79 4-4 4h-1z" fill="#fcd770"/><circle cx="15" cy="9" fill="#f0d0b4" r="7"/><path d="m23 46v-5c2.757 0 5-2.243 5-5v-10c0-5.093-3.484-9.376-8.19-10.623 1.933-1.461 3.19-3.772 3.19-6.377 0-4.411-3.589-8-8-8s-8 3.589-8 8c0 2.498 1.152 4.73 2.951 6.199-5.088.963-8.951 5.436-8.951 10.801v3c0 2.757 2.243 5 5 5h1v4 1 19.5c0 2.481 2.019 4.5 4.5 4.5 1.421 0 2.675-.675 3.5-1.706.825 1.031 2.079 1.706 3.5 1.706 1.953 0 3.602-1.258 4.224-3h28.553l11.667-7-11.667-7zm0 8h27v4h-27zm27-6v4h-27v-4zm-41-39c0-3.309 2.691-6 6-6s6 2.691 6 6-2.691 6-6 6-6-2.691-6-6zm-6 20v-3c0-4.962 4.038-9 9-9h3 2c4.962 0 9 4.038 9 9v10c0 1.654-1.346 3-3 3v-16h-2v10h-2v-10h-12v4h-2v2h8.5c.827 0 1.5.673 1.5 1.5s-.673 1.5-1.5 1.5h-7.5c-1.654 0-3-1.346-3-3zm10.5 5c1.93 0 3.5-1.57 3.5-3.5s-1.57-3.5-3.5-3.5h-4.5v-2h8v5.5 6.5h-8v-3zm-2 27c-1.378 0-2.5-1.122-2.5-2.5v-19.5h5v1 18.5c0 1.378-1.122 2.5-2.5 2.5zm7 0c-1.378 0-2.5-1.122-2.5-2.5v-18.5-1h3v-4h2v23.5c0 1.378-1.122 2.5-2.5 2.5zm33.5-3.766v-8.468l7.056 4.234z"/><path d="m49 28h-16v14h16zm-2 12h-12v-10h12z"/><path d="m49 13.414 4.707-4.707-1.414-1.414-3.293 3.293v-.586h-16v14h16zm-14 8.586v-10h12v.586l-6 6-3.293-3.293-1.414 1.414 4.707 4.707 6-6v6.586z"/><path d="m51 28h12v2h-12z"/><path d="m51 22h12v2h-12z"/><path d="m51 18h12v2h-12z"/><path d="m51 14h12v2h-12z"/><path d="m55 10h8v2h-8z"/><path d="m51 32h12v2h-12z"/><path d="m61 36h2v2h-2z"/><path d="m51 36h8v2h-8z"/><path d="m51 40h12v2h-12z"/></svg>