<?xml version="1.0" encoding="iso-8859-1"?>
<!-- Generator: Adobe Illustrator 19.0.0, SVG Export Plug-In . SVG Version: 6.00 Build 0)  -->
<svg version="1.1" id="Capa_1" xmlns="http://www.w3.org/2000/svg" xmlns:xlink="http://www.w3.org/1999/xlink" x="0px" y="0px"
	 viewBox="0 0 512 512" style="enable-background:new 0 0 512 512;" xml:space="preserve">
<path style="fill:#FF6E37;" d="M463.7,295.412c-13.972-18.537-39.93-40.853-85.205-44.751c-40.788-3.512-69.901,14.374-87.4,30.402
	l-10.839,98.722c-2.341,50.231,26.799,94.864,76.859,99.621l0,0c50.057,4.757,87.36-31.477,94.527-81.247l21.103-98.659
	C469.461,299.763,466.038,298.514,463.7,295.412z"/>
<path style="fill:#FFC66C;" d="M401.881,32.697L401.881,32.697c-61.969-5.89-116.578,40.525-120.752,102.633l-8.024,137.896
	c-0.548,9.408,10.626,14.636,17.546,8.239c0.144-0.133,0.296-0.268,0.443-0.403c17.499-16.028,46.612-33.914,87.4-30.402
	c45.276,3.898,71.233,26.215,85.205,44.751c2.338,3.102,5.762,4.351,9.045,4.087c4.555-0.365,8.841-3.646,9.588-8.981
	l18.805-134.278C508.738,94.459,463.85,38.586,401.881,32.697z"/>
<path style="fill:#FF6E37;" d="M133.236,250.661c-45.276,3.898-71.233,26.215-85.205,44.751c-2.202,2.921-5.366,4.199-8.47,4.118
	l20.528,98.629c7.166,49.77,44.47,86.004,94.526,81.247l0,0c50.06-4.758,79.2-49.39,76.859-99.621l-10.528-98.44
	C203.481,265.246,174.262,247.129,133.236,250.661z"/>
<path style="fill:#FFC66C;" d="M238.623,273.226L230.6,135.331c-4.175-62.108-58.783-108.523-120.752-102.633l0,0
	C47.879,38.586,2.992,94.459,10.592,156.24l18.805,134.278c0.779,5.559,5.399,8.889,10.162,9.012c3.104,0.08,6.268-1.198,8.47-4.118
	c13.972-18.537,39.93-40.853,85.205-44.751c41.026-3.533,70.245,14.585,87.71,30.684c0.043,0.04,0.089,0.08,0.132,0.12
	C227.998,287.861,239.171,282.633,238.623,273.226z"/>
<path d="M240.861,134.659c-2.202-32.759-17.192-62.51-42.209-83.774s-56.799-31.261-89.482-28.157
	c-32.686,3.107-62.012,18.914-82.575,44.51s-29.681,57.639-25.672,90.225c0.007,0.055,0.014,0.11,0.022,0.166l18.805,134.278
	c1.153,8.231,7.102,14.898,15.157,16.982c1.712,0.444,3.443,0.659,5.153,0.659c6.295,0,12.323-2.918,16.236-8.11l0,0
	c12.533-16.626,36.25-37.201,78.069-40.802c34.802-2.999,60.331,11.174,76.498,24.916l10.894,95.028
	c2.12,48.34-25.732,84.857-67.819,88.856c-42.514,4.039-76.922-25.856-83.668-72.706c-0.021-0.142-0.044-0.283-0.07-0.424
	l-5.407-28.752c-1.022-5.435-6.263-9.012-11.691-7.99c-5.435,1.022-9.012,6.256-7.99,11.691l5.368,28.546
	c3.916,26.867,16.126,50.62,34.397,66.902c16.919,15.079,38.457,23.122,61.453,23.122c3.143,0,6.314-0.15,9.504-0.454
	c52.522-4.992,88.655-51.276,85.914-110.056c-0.011-0.225-0.029-0.45-0.054-0.674l-9.708-84.676
	c1.782-0.313,3.547-0.854,5.243-1.655c7.572-3.578,12.149-11.298,11.661-19.668L240.861,134.659z M42.208,79.781
	c17.149-21.344,41.603-34.525,68.859-37.117c27.251-2.586,53.755,5.748,74.617,23.479c20.861,17.731,33.361,42.54,35.192,69.768
	l4.503,77.396c-27.091-15.295-57.49-24.182-83.815-24.182c-41.173,0-79.74,14.652-110.166,41.54l-10.605-75.728
	C17.473,127.792,25.077,101.104,42.208,79.781z M132.647,240.684c-49.174,4.235-77.358,28.821-92.343,48.701l0,0
	c-0.074,0.098-0.12,0.132-0.118,0.133c-0.068,0.023-0.281,0.009-0.457-0.098c-0.081-0.049-0.115-0.07-0.146-0.291l-4.756-33.962
	c28.028-29.674,65.931-46.017,106.735-46.017c26.674,0,58.462,10.649,85.232,28.513l2.103,36.143
	c0.008,0.15-0.008,0.225-0.014,0.236c-0.024,0.048-0.185,0.181-0.39,0.219c-0.103,0.02-0.155,0.028-0.35-0.152
	C209.34,256.73,177.503,236.826,132.647,240.684z"/>
<path d="M51.113,343.22l0.339-0.091c5.341-1.432,8.511-6.923,7.079-12.264c-1.432-5.341-6.924-8.513-12.264-7.079l-0.339,0.091
	c-5.341,1.432-8.511,6.923-7.079,12.264c1.199,4.473,5.245,7.424,9.666,7.424C49.372,343.564,50.244,343.453,51.113,343.22z"/>
<path d="M485.404,67.238c-20.564-25.596-49.89-41.404-82.575-44.51c-32.687-3.107-64.464,6.893-89.482,28.157
	c-25.017,21.263-40.008,51.015-42.215,83.863l-8.024,137.896c-0.488,8.37,4.09,16.09,11.661,19.668
	c1.697,0.802,3.461,1.342,5.243,1.655l-9.708,84.676c-0.025,0.224-0.043,0.45-0.054,0.674
	c-2.74,58.779,33.393,105.064,85.914,110.056c3.191,0.303,6.359,0.454,9.504,0.454c22.994-0.001,44.535-8.045,61.453-23.122
	c18.271-16.282,30.481-40.035,34.397-66.902l5.368-28.546c1.022-5.435-2.555-10.669-7.99-11.691
	c-5.434-1.022-10.669,2.554-11.691,7.99l-5.407,28.752c-0.026,0.14-0.05,0.281-0.07,0.424c-6.746,46.85-41.153,76.75-83.668,72.706
	c-42.088-4-69.94-40.516-67.819-88.856l10.894-95.028c16.165-13.742,41.693-27.912,76.498-24.916
	c41.819,3.601,65.536,24.176,78.068,40.802c3.914,5.193,9.941,8.11,16.236,8.11c1.71,0,3.441-0.215,5.153-0.659
	c8.055-2.086,14.004-8.752,15.157-16.982l18.805-134.278c0.008-0.055,0.015-0.11,0.022-0.166
	C515.085,124.877,505.968,92.834,485.404,67.238z M326.318,66.144c20.861-17.731,47.36-26.07,74.617-23.479
	c27.256,2.59,51.71,15.772,68.859,37.116c17.131,21.322,24.736,48.01,21.416,75.157l-10.338,73.818
	c-30.076-25.672-67.782-39.63-107.971-39.63c-28.412,0-60.185,8.463-86.184,22.573l4.404-75.697
	C292.956,108.684,305.456,83.876,326.318,66.144z M472.416,289.13c-0.031,0.221-0.064,0.241-0.146,0.291
	c-0.174,0.107-0.39,0.122-0.448,0.102c0,0-0.047-0.032-0.126-0.137l0,0c-14.984-19.88-43.169-44.467-92.343-48.701
	c-3.828-0.329-7.553-0.486-11.192-0.486c-38.999,0-67.106,18.015-84.307,33.913c-0.193,0.179-0.246,0.171-0.35,0.151
	c-0.204-0.038-0.365-0.17-0.39-0.219c-0.005-0.012-0.022-0.086-0.014-0.236l2.206-37.907c24.311-16.259,58.617-26.748,87.592-26.748
	c39.77,0,76.782,15.53,104.584,43.794L472.416,289.13z"/>
<path d="M466.072,323.877l-0.339-0.091c-5.343-1.431-10.832,1.737-12.264,7.079c-1.432,5.341,1.738,10.832,7.079,12.264l0.339,0.091
	c0.869,0.232,1.74,0.343,2.598,0.343c4.421,0,8.467-2.95,9.666-7.424C474.583,330.799,471.414,325.308,466.072,323.877z"/>
<g>
</g>
<g>
</g>
<g>
</g>
<g>
</g>
<g>
</g>
<g>
</g>
<g>
</g>
<g>
</g>
<g>
</g>
<g>
</g>
<g>
</g>
<g>
</g>
<g>
</g>
<g>
</g>
<g>
</g>
</svg>
