<?xml version="1.0" encoding="UTF-8"?>
<svg xmlns="http://www.w3.org/2000/svg" width="100%" height="100%" viewBox="0 0 1175.26 1175.26" xmlns:xlink="http://www.w3.org/1999/xlink">
 <g>
  <path fill="red" fill-rule="nonzero" d="M-0 587.63c0,-162.55 57.44,-300.99 172.04,-415.59 114.6,-114.6 253.04,-172.04 415.59,-172.04 162.56,0 301,57.44 415.6,172.04 114.6,114.6 172.03,253.04 172.03,415.59 0,162.55 -57.43,300.99 -172.03,415.59 -114.6,114.6 -253.04,172.04 -415.6,172.04 -162.55,0 -300.99,-57.44 -415.59,-172.04 -114.6,-114.6 -172.04,-253.04 -172.04,-415.59zm300.73 -0.54c0,115.95 26.28,209.69 78.84,281.22 52.83,71.25 121.91,107.01 207.79,107.01 85.61,0 154.97,-35.76 207.8,-107.01 52.83,-71.53 79.38,-165.27 79.38,-281.22 0,-116.23 -26.55,-210.24 -79.38,-281.76 -52.83,-71.25 -122.19,-107.01 -207.8,-107.01 -85.88,0 -154.96,35.76 -207.79,107.01 -52.56,71.52 -78.84,165.53 -78.84,281.76zm157.67 1.35c0,-198.31 43.08,-297.47 128.96,-297.47 86.43,0 129.5,95.64 129.5,287.18 0,205.09 -43.07,307.77 -129.5,307.77 -85.88,0 -128.96,-99.16 -128.96,-297.48z"/>
 </g>
</svg>
