<svg id="Layer_5" enable-background="new 0 0 64 64" height="512" viewBox="0 0 64 64" width="512" xmlns="http://www.w3.org/2000/svg"><g><g><g><path d="m49 62h-34c1.1 0 2.1-.45 2.83-1.17.72-.73 1.17-1.73 1.17-2.83h3 20 3c2.21 0 4 1.79 4 4z" fill="#aab2bd"/></g><g><path d="m40 52 2 6h-20l2-6z" fill="#aab2bd"/></g><g><path d="m54 52h-44c-2.209 0-4-1.791-4-4v-30c0-2.209 1.791-4 4-4h44c2.209 0 4 1.791 4 4v30c0 2.209-1.791 4-4 4z" fill="#ccd1d9"/></g><g><path d="m19 52v6c0 1.1-.45 2.1-1.17 2.83-.73.72-1.73 1.17-2.83 1.17-2.21 0-4-1.79-4-4v-6-8.63c1.26.41 2.61.63 4 .63s2.74-.22 4-.63v.63z" fill="#b27946"/></g><g><path d="m53 44h-39v-26h40v25c0 .552-.448 1-1 1z" fill="#69d6f4"/></g><g><path d="m40 26h22v14h-22z" fill="#b4dd7f"/></g><g><path d="m58 26v2h-10v-2-8-4-4h10z" fill="#ff826e"/></g><g><path d="m58 7v3h-10v-3c0-1.38.56-2.63 1.46-3.54.91-.9 2.16-1.46 3.54-1.46 2.76 0 5 2.24 5 5z" fill="#aab2bd"/></g><g><path d="m58 28-3.55 7.11c-.28.54-.84.89-1.45.89s-1.17-.35-1.45-.89l-3.55-7.11z" fill="#aab2bd"/></g><g><path d="m6 40.37c-2.47-2.36-4-5.69-4-9.37s1.53-7.01 4-9.38c2.33-2.24 5.5-3.62 9-3.62 7.18 0 13 5.82 13 13 0 5.79-3.78 10.69-9 12.37-1.26.41-2.61.63-4 .63s-2.74-.22-4-.63c-1.89-.61-3.6-1.65-5-3z" fill="#fcd770"/></g><g><circle cx="15" cy="31" fill="#4fc1e9" r="9"/></g></g><g><path d="m47 47h8v2h-8z"/><path d="m43 47h2v2h-2z"/><path d="m63 25h-4v-18c0-3.309-2.691-6-6-6s-6 2.691-6 6v6h-37c-2.757 0-5 2.243-5 5v3.221c-2.47 2.525-4 5.975-4 9.779s1.53 7.254 4 9.779v7.221c0 2.757 2.243 5 5 5v5c0 2.757 2.243 5 5 5h35v-1c0-2.757-2.243-5-5-5h-2.279l-1.333-4h12.612c2.757 0 5-2.243 5-5v-7h4zm-10 16v2h-30.826c4.081-2.449 6.826-6.904 6.826-12s-2.745-9.551-6.826-12h24.826v6h-8v16zm-33 16v-4h2.612l-1.333 4zm29-30v-16h8v16zm7.382 2-2.829 5.658c-.211.422-.895.422-1.105 0l-2.83-5.658zm-3.382-26c2.206 0 4 1.794 4 4v2h-8v-2c0-2.206 1.794-4 4-4zm-43 12h37v2h-32c-2.974 0-5.73.939-8 2.527v-1.527c0-1.654 1.346-3 3-3zm5 4c6.617 0 12 5.383 12 12s-5.383 12-12 12-12-5.383-12-12 5.383-12 12-12zm-8 29v-5.527c.924.647 1.932 1.178 3 1.588v6.939c-1.654 0-3-1.346-3-3zm5 10v-13.332c.968.212 1.97.332 3 .332s2.032-.12 3-.332v13.332c0 1.654-1.346 3-3 3s-3-1.346-3-3zm35.829 3h-28.855c.442-.584.773-1.257.924-2h25.102c1.304 0 2.416.836 2.829 2zm-7.217-4h-17.224l1.333-4h14.558zm16.388-9c0 1.654-1.346 3-3 3h-34v-6h33c1.103 0 2-.897 2-2v-2h2zm4-9h-20v-12h6v1.236l3.658 7.316c.446.893 1.344 1.448 2.342 1.448s1.896-.555 2.342-1.447l3.658-7.317v-1.236h2z"/><path d="m52 21h2v2h-2z"/><path d="m52 13h2v2h-2z"/><path d="m52 17h2v2h-2z"/><path d="m15 41c5.514 0 10-4.486 10-10s-4.486-10-10-10-10 4.486-10 10 4.486 10 10 10zm0-18c4.411 0 8 3.589 8 8s-3.589 8-8 8-8-3.589-8-8 3.589-8 8-8z"/><path d="m15 27v-2c-3.309 0-6 2.691-6 6h2c0-2.206 1.794-4 4-4z"/><path d="m31 21h6v2h-6z"/><path d="m31 25h6v2h-6z"/><path d="m31 29h6v2h-6z"/><path d="m31 33h6v2h-6z"/><path d="m31 37h6v2h-6z"/></g></g></svg>