<svg id="Capa_1" enable-background="new 0 0 512 512" height="512" viewBox="0 0 512 512" width="512" xmlns="http://www.w3.org/2000/svg"><g><g><g fill="#31a7fb"><path d="m44.874 95.184h10.918v56.165h53.282v-56.165h10.918c8.79 0 13.295-10.528 7.232-16.882l-37.559-39.417c-3.936-4.125-10.528-4.125-14.464 0l-37.559 39.417c-6.064 6.353-1.559 16.882 7.232 16.882z"/><path d="m350.539 95.184h10.918v56.165h53.282v-56.165h10.918c8.79 0 13.295-10.528 7.232-16.882l-37.559-39.417c-3.936-4.125-10.528-4.125-14.464 0l-37.559 39.417c-6.064 6.353-1.559 16.882 7.232 16.882z"/></g><g><g><g><path d="m463.026 399.131v-249.027c0-5.524-4.475-9.999-9.989-9.999h-435.543c-5.514 0-9.989 4.475-9.989 9.999v249.027c0 5.514 4.475 9.989 9.989 9.989h435.543c5.514 0 9.989-4.475 9.989-9.989z" fill="#a9eddc"/><path d="m463.03 399.123v-249.016c0-5.527-4.478-9.995-9.995-9.995h-29.986c5.517 0 9.995 4.468 9.995 9.995v249.016c0 5.527-4.478 9.995-9.995 9.995h29.986c5.517 0 9.995-4.468 9.995-9.995z" fill="#64e0c4"/><path d="m37.482 374.138v-158.376c0-2.557 1.948-4.685 4.495-4.965 19.029-2.068 34.143-17.181 36.22-36.21.27-2.547 2.397-4.485 4.955-4.485h344.892c2.767 0 5.005 2.238 5.005 4.995v158.367c0 2.567-1.948 4.685-4.495 4.965-19.029 2.078-34.143 17.181-36.22 36.21-.27 2.547-2.397 4.495-4.955 4.495h-344.893c-2.767-.001-5.004-2.239-5.004-4.996z" fill="#27d1b3"/></g><g fill="#c8f2e7"><circle cx="235.265" cy="274.615" r="62.846"/><g><path d="m77.417 314.475h13.41c5.52 0 9.995 4.475 9.995 9.995v13.41c0 5.52-4.475 9.995-9.995 9.995h-13.41c-5.52 0-9.995-4.475-9.995-9.995v-13.41c0-5.52 4.475-9.995 9.995-9.995z"/><path d="m393.113 234.755h-13.41c-5.52 0-9.995-4.475-9.995-9.995v-13.41c0-5.52 4.475-9.995 9.995-9.995h13.41c5.52 0 9.995 4.475 9.995 9.995v13.41c.001 5.52-4.474 9.995-9.995 9.995z"/></g></g></g></g><path d="m208.628 95.182v74.918h53.275v-74.918h10.925c8.784 0 13.291-10.522 7.231-16.881l-37.563-39.412c-3.936-4.13-10.526-4.13-14.462 0l-37.563 39.412c-6.06 6.359-1.553 16.881 7.231 16.881z" fill="#31a7fb"/></g><g><g><g><g><circle cx="415.346" cy="387.055" fill="#fccb90" r="89.154"/><path d="m504.498 387.056c0 49.24-39.916 89.156-89.156 89.156-4.432 0-8.793-.321-13.055-.952 43.054-6.317 76.101-43.395 76.101-88.203s-33.047-81.887-76.101-88.203c4.261-.632 8.623-.952 13.055-.952 49.24-.001 89.156 39.914 89.156 89.154z" fill="#fcb44d"/><circle cx="415.346" cy="387.055" fill="#fee7c9" r="63.041"/><g><path d="m235.265 204.269c-38.789 0-70.346 31.557-70.346 70.346s31.557 70.346 70.346 70.346 70.346-31.557 70.346-70.346-31.557-70.346-70.346-70.346zm0 125.692c-30.518 0-55.346-24.828-55.346-55.346s24.828-55.346 55.346-55.346 55.346 24.828 55.346 55.346-24.828 55.346-55.346 55.346z"/><path d="m243.216 267.115h-.451v-9.625h7.485c4.142 0 7.5-3.358 7.5-7.5s-3.358-7.5-7.5-7.5h-7.485v-1.669c0-4.142-3.358-7.5-7.5-7.5s-7.5 3.358-7.5 7.5v1.669h-.451c-10.925 0-19.813 8.888-19.813 19.813s8.888 19.813 19.813 19.813h.451v9.625h-7.485c-4.142 0-7.5 3.358-7.5 7.5s3.358 7.5 7.5 7.5h7.485v1.669c0 4.142 3.358 7.5 7.5 7.5s7.5-3.358 7.5-7.5v-1.669h.451c10.925 0 19.813-8.888 19.813-19.813s-8.888-19.813-19.813-19.813zm-15.902 0c-2.654 0-4.813-2.159-4.813-4.813s2.159-4.813 4.813-4.813h.451v9.625h-.451zm15.902 24.625h-.451v-9.625h.451c2.654 0 4.813 2.159 4.813 4.813s-2.159 4.812-4.813 4.812z"/><path d="m90.828 306.974h-13.411c-9.647 0-17.496 7.849-17.496 17.496v13.411c0 9.647 7.849 17.495 17.496 17.495h13.411c9.647 0 17.495-7.848 17.495-17.495v-13.411c0-9.647-7.848-17.496-17.495-17.496zm2.495 30.907c0 1.376-1.119 2.495-2.495 2.495h-13.411c-1.376 0-2.496-1.119-2.496-2.495v-13.411c0-1.376 1.12-2.496 2.496-2.496h13.411c1.376 0 2.495 1.12 2.495 2.496z"/><path d="m84.122 292.232c4.142 0 7.5-3.358 7.5-7.5v-45.671c0-4.142-3.358-7.5-7.5-7.5s-7.5 3.358-7.5 7.5v45.671c0 4.142 3.358 7.5 7.5 7.5z"/><path d="m379.703 242.256h13.411c9.647 0 17.496-7.849 17.496-17.496v-13.411c0-9.647-7.849-17.495-17.496-17.495h-13.411c-9.647 0-17.495 7.848-17.495 17.495v13.411c0 9.647 7.848 17.496 17.495 17.496zm-2.495-30.907c0-1.376 1.119-2.495 2.495-2.495h13.411c1.376 0 2.496 1.119 2.496 2.495v13.411c0 1.376-1.12 2.496-2.496 2.496h-13.411c-1.376 0-2.495-1.12-2.495-2.496z"/><path d="m470.53 307.75v-157.646c0-9.647-7.849-17.496-17.496-17.496h-30.799v-29.927h3.425c7.115 0 13.274-4.063 16.076-10.603 2.801-6.54 1.492-13.802-3.416-18.952l-37.563-39.412c-3.285-3.446-7.899-5.423-12.66-5.423s-9.375 1.977-12.66 5.423l-37.562 39.412c-4.909 5.15-6.218 12.412-3.417 18.952s8.961 10.603 16.076 10.603h3.425v29.927h-84.558v-29.927h3.426c7.115 0 13.275-4.063 16.076-10.603s1.492-13.802-3.417-18.952l-37.563-39.412c-3.285-3.446-7.899-5.423-12.66-5.423s-9.375 1.977-12.66 5.423l-37.563 39.412c-4.908 5.15-6.217 12.412-3.416 18.952 2.802 6.54 8.961 10.603 16.076 10.603h3.425v29.927h-84.555v-29.927h3.425c7.115 0 13.275-4.063 16.077-10.603s1.492-13.802-3.417-18.952l-37.562-39.411c-3.285-3.446-7.899-5.423-12.66-5.423s-9.375 1.977-12.66 5.423l-37.564 39.412c-4.909 5.15-6.217 12.412-3.416 18.952s8.961 10.603 16.076 10.603h3.425v29.927h-30.798c-9.647 0-17.496 7.848-17.496 17.495v150.067c0 4.142 3.358 7.5 7.5 7.5s7.5-3.358 7.5-7.5v-150.067c0-1.376 1.12-2.496 2.496-2.496h183.632v14.991h-117.973c-6.384 0-11.723 4.806-12.417 11.179-1.686 15.448-14.124 27.883-29.575 29.567-6.374.694-11.181 6.033-11.181 12.418v158.373c0 6.89 5.609 12.495 12.504 12.495h276.214c-.001.142-.008.283-.008.424 0 4.95.376 9.814 1.097 14.566h-302.293c-1.376 0-2.496-1.12-2.496-2.496v-65.294c0-4.142-3.358-7.5-7.5-7.5s-7.5 3.358-7.5 7.5v65.294c0 9.647 7.849 17.496 17.496 17.496h305.828c12.521 38.877 49.036 67.087 92.023 67.087 53.295 0 96.654-43.359 96.654-96.654-.001-32.794-16.423-61.821-41.471-79.304zm-414.735-220.069h-10.925c-1.428 0-2.046-.945-2.288-1.509-.241-.563-.499-1.664.486-2.697l37.563-39.412c.64-.671 1.403-.772 1.802-.772s1.162.101 1.802.772l37.563 39.413c.985 1.034.727 2.133.486 2.696-.241.564-.859 1.509-2.288 1.509h-10.926c-4.142 0-7.5 3.358-7.5 7.5v37.427h-38.275v-37.427c0-4.142-3.358-7.5-7.5-7.5zm305.665 0h-10.925c-1.428 0-2.046-.945-2.288-1.509s-.499-1.663.486-2.697l37.563-39.412c.64-.671 1.403-.772 1.802-.772s1.162.101 1.802.772l37.563 39.412c.985 1.034.728 2.133.486 2.697-.241.563-.859 1.509-2.288 1.509h-10.925c-4.142 0-7.5 3.358-7.5 7.5v37.427h-38.276v-37.427c0-4.142-3.358-7.5-7.5-7.5zm-163.758 0c-1.428 0-2.046-.945-2.288-1.509s-.5-1.664.486-2.697l37.563-39.412c.64-.671 1.403-.771 1.802-.771s1.162.1 1.802.771l37.563 39.413c.985 1.034.727 2.133.486 2.697s-.859 1.509-2.288 1.509h-10.926c-4.142 0-7.5 3.358-7.5 7.5v67.418h-38.275v-67.419c0-4.142-3.358-7.5-7.5-7.5zm217.644 381.028c-45.024 0-81.654-36.63-81.654-81.654 0-16.667 4.992-32.698 14.436-46.362 2.355-3.408 1.502-8.079-1.905-10.434-3.408-2.357-8.08-1.502-10.434 1.905-8.233 11.911-13.597 25.341-15.862 39.467h-274.945v-153.665c20.64-3.227 37.147-19.73 40.376-40.367h239.479c4.142 0 7.5-3.358 7.5-7.5s-3.358-7.5-7.5-7.5h-55.434v-14.991h183.632c1.376 0 2.496 1.12 2.496 2.496v149.056c-4.797-2.202-9.804-4.019-14.982-5.419v-118.647c0-6.89-5.609-12.495-12.504-12.495h-69.547c-4.142 0-7.5 3.358-7.5 7.5s3.358 7.5 7.5 7.5h67.051v113.34c-3.354-.353-6.757-.538-10.202-.538-7.274 0-14.456.812-21.438 2.394v-28.297c0-4.142-3.358-7.5-7.5-7.5s-7.5 3.358-7.5 7.5v33.028c-5.956 2.427-11.689 5.444-17.11 9.058-3.446 2.297-4.378 6.954-2.08 10.4 2.297 3.447 6.955 4.378 10.4 2.08 13.409-8.939 29.049-13.664 45.228-13.664 45.024 0 81.654 36.63 81.654 81.654s-36.631 81.655-81.655 81.655z"/><path d="m415.346 316.513c-38.896 0-70.542 31.645-70.542 70.542s31.645 70.541 70.542 70.541 70.541-31.645 70.541-70.541-31.644-70.542-70.541-70.542zm0 126.083c-30.625 0-55.542-24.916-55.542-55.541s24.916-55.542 55.542-55.542 55.541 24.916 55.541 55.542-24.915 55.541-55.541 55.541z"/><path d="m423.322 379.555h-.476v-9.702h7.532c4.142 0 7.5-3.358 7.5-7.5s-3.358-7.5-7.5-7.5h-7.532v-1.698c0-4.142-3.358-7.5-7.5-7.5s-7.5 3.358-7.5 7.5v1.698h-.476c-10.946 0-19.851 8.905-19.851 19.851s8.905 19.851 19.851 19.851h.476v9.702h-7.532c-4.142 0-7.5 3.358-7.5 7.5s3.358 7.5 7.5 7.5h7.532v1.698c0 4.142 3.358 7.5 7.5 7.5s7.5-3.358 7.5-7.5v-1.698h.476c10.946 0 19.851-8.905 19.851-19.851s-8.905-19.851-19.851-19.851zm-15.952 0c-2.675 0-4.851-2.176-4.851-4.851s2.176-4.851 4.851-4.851h.476v9.702zm15.952 24.702h-.476v-9.702h.476c2.675 0 4.851 2.176 4.851 4.851s-2.176 4.851-4.851 4.851z"/></g></g></g></g></g></g></svg>