<?xml version="1.0" encoding="UTF-8"?>
<svg xmlns="http://www.w3.org/2000/svg" width="100%" height="100%" viewBox="0 0 1175.26 1175.26" xmlns:xlink="http://www.w3.org/1999/xlink">
 <g>
  <path fill="red" fill-rule="nonzero" d="M-0 587.63c0,-162.55 57.44,-300.99 172.04,-415.59 114.6,-114.6 253.04,-172.04 415.59,-172.04 162.56,0 301,57.44 415.6,172.04 114.6,114.6 172.03,253.04 172.03,415.59 0,162.55 -57.43,300.99 -172.03,415.59 -114.6,114.6 -253.04,172.04 -415.6,172.04 -162.55,0 -300.99,-57.44 -415.59,-172.04 -114.6,-114.6 -172.04,-253.04 -172.04,-415.59zm385.26 369.81c33.59,6.77 63.66,11.92 90.75,15.71 27.1,3.52 50.94,5.42 70.99,5.42 90.48,0 162.01,-20.86 214.57,-62.85 52.55,-41.72 78.83,-98.89 78.83,-171.5 0,-76.67 -29.8,-137.35 -89.4,-181.78 -59.87,-44.44 -141.42,-66.65 -245.46,-66.65l0 -159.3 318.61 0 0 -117.04 -425.89 0 0 369.81c17.61,-2.71 35.49,-4.07 53.64,-4.07 153.89,0 230.83,53.37 230.83,159.85 0,94.01 -46.06,140.88 -138.44,140.88 -42.54,0 -95.64,-12.47 -159.03,-37.39l0 108.91z"/>
 </g>
</svg>
