<?xml version="1.0" encoding="UTF-8"?>
<svg xmlns="http://www.w3.org/2000/svg" width="100%" height="100%" viewBox="0 0 1175.26 1175.26" xmlns:xlink="http://www.w3.org/1999/xlink">
 <g>
  <path fill="red" fill-rule="nonzero" d="M-0 587.63c0,-162.55 57.44,-300.99 172.04,-415.59 114.6,-114.6 253.04,-172.04 415.59,-172.04 162.56,0 301,57.44 415.6,172.04 114.6,114.6 172.03,253.04 172.03,415.59 0,162.55 -57.43,300.99 -172.03,415.59 -114.6,114.6 -253.04,172.04 -415.6,172.04 -162.55,0 -300.99,-57.44 -415.59,-172.04 -114.6,-114.6 -172.04,-253.04 -172.04,-415.59zm464.36 -24.11c-98.34,56.62 -147.38,128.14 -147.38,215.11 0,60.15 24.39,108.64 73.42,145.21 48.77,36.58 113.52,54.73 193.71,54.73 82.36,0 149.28,-20.05 200.48,-60.41 51.21,-40.1 76.95,-92.39 76.95,-157.14 0,-82.9 -52.83,-152.26 -158.49,-207.8 82.9,-58.24 124.35,-120.01 124.35,-185.04 0,-50.66 -20.59,-91.3 -61.77,-121.37 -41.18,-30.07 -96.45,-45.24 -165.53,-45.24 -73.42,0 -132.76,17.61 -178,53.1 -45.24,35.49 -67.73,81.82 -67.73,138.98 0,66.11 36.57,122.73 109.99,169.87zm161.74 -52.29c-95.63,-50.93 -143.31,-96.72 -143.31,-137.63 0,-54.99 34.95,-82.63 104.57,-82.63 74.51,0 111.62,32.24 111.62,96.45 0,43.35 -24.38,84.53 -72.88,123.81zm-88.86 101.6l69.09 39.01c80.19,46.33 120.29,90.76 120.29,133.56 0,29.81 -12.2,54.46 -36.31,74.24 -24.38,19.77 -54.72,29.53 -91.03,29.53 -41.18,0 -75.31,-12.74 -102.13,-37.93 -26.83,-25.47 -40.37,-57.44 -40.37,-96.18 0,-49.58 26.82,-96.99 80.46,-142.23z"/>
 </g>
</svg>
