<?xml version="1.0" encoding="UTF-8"?>
<svg xmlns="http://www.w3.org/2000/svg" xml:space="preserve" width="100%" height="100%" version="1.1" viewBox="0 0 11998.55 7441.63" xmlns:xlink="http://www.w3.org/1999/xlink">
 <g>
  <g transform="matrix(0.999999 0 0 0.999999 -6085.22 -3405.67)">
   <text x="6085.25" y="3802.15"  fill="black" font-weight="normal" font-size="490.07px" font-family="Arial"> </text>
  </g>
  <polygon fill="white" points="131.48,12.62 131.48,7426.91 11983.83,7426.91 11983.83,12.62 "/>
  <polygon fill="none" stroke="#41719C" stroke-width="27.34" stroke-linecap="square" stroke-miterlimit="22.9256" points="132.53,13.67 11984.88,13.67 11984.88,7427.96 132.53,7427.96 "/>
  <g transform="matrix(0.999999 0 0 0.999999 -5729.76 -3199.54)">
   <text x="6085.25" y="3802.15"  fill="black" font-weight="bold" font-size="420.66px" font-family="Calibri">СТРАТЕГІЧНИЙ ЦИКЛ РОЗВИТКУ ОРГАНІЗАЦІЇ</text>
  </g>
  <g transform="matrix(0.999999 0 0 0.999999 2456.46 -3199.54)">
   <text x="6085.25" y="3802.15"  fill="black" font-weight="normal" font-size="490.07px" font-family="Arial"> </text>
  </g>
  <polygon fill="#5B9BD5" points="4060.53,1684.78 4060.53,2387.3 7215.54,2387.3 7215.54,1684.78 "/>
  <polygon fill="none" stroke="black" stroke-width="27.34" stroke-linecap="square" stroke-miterlimit="22.9256" points="4061.58,1685.83 7216.6,1685.83 7216.6,2388.35 4061.58,2388.35 "/>
  <g transform="matrix(0.999999 0 0 0.999999 -1232.81 -1632.55)">
   <text x="6085.25" y="3802.15"  fill="white" font-weight="bold" font-size="351.25px" font-family="Calibri">Концепція</text>
  </g>
  <g transform="matrix(0.999999 0 0 0.999999 363.63 -1632.55)">
   <text x="6085.25" y="3802.15"  fill="black" font-weight="normal" font-size="490.07px" font-family="Arial"> </text>
  </g>
  <polygon fill="#5B9BD5" points="4060.53,3176.05 4060.53,3876.47 7215.54,3876.47 7215.54,3176.05 "/>
  <polygon fill="none" stroke="black" stroke-width="27.34" stroke-linecap="square" stroke-miterlimit="22.9256" points="4061.58,3177.11 7216.6,3177.11 7216.6,3877.52 4061.58,3877.52 "/>
  <g transform="matrix(0.999999 0 0 0.999999 -1125.54 -143.38)">
   <text x="6085.25" y="3802.15"  fill="white" font-weight="bold" font-size="351.25px" font-family="Calibri">Стратегія</text>
  </g>
  <g transform="matrix(0.999999 0 0 0.999999 256.36 -143.38)">
   <text x="6085.25" y="3802.15"  fill="black" font-weight="normal" font-size="490.07px" font-family="Arial"> </text>
  </g>
  <polygon fill="#5B9BD5" points="4060.53,4667.33 4060.53,5367.74 7215.54,5367.74 7215.54,4667.33 "/>
  <polygon fill="none" stroke="black" stroke-width="27.34" stroke-linecap="square" stroke-miterlimit="22.9256" points="4061.58,4668.38 7216.6,4668.38 7216.6,5368.79 4061.58,5368.79 "/>
  <g transform="matrix(0.999999 0 0 0.999999 -1188.64 1350)">
   <text x="6085.25" y="3802.15"  fill="white" font-weight="bold" font-size="351.25px" font-family="Calibri">Програма</text>
  </g>
  <g transform="matrix(0.999999 0 0 0.999999 317.36 1350)">
   <text x="6085.25" y="3802.15"  fill="black" font-weight="normal" font-size="490.07px" font-family="Arial"> </text>
  </g>
  <polygon fill="#5B9BD5" points="4060.53,6158.59 4060.53,6856.9 7215.54,6856.9 7215.54,6158.59 "/>
  <polygon fill="none" stroke="black" stroke-width="27.34" stroke-linecap="square" stroke-miterlimit="22.9256" points="4061.58,6159.64 7216.6,6159.64 7216.6,6857.95 4061.58,6857.95 "/>
  <g transform="matrix(0.999999 0 0 0.999999 -1075.06 2839.17)">
   <text x="6085.25" y="3802.15"  fill="white" font-weight="bold" font-size="351.25px" font-family="Calibri">Проекти</text>
  </g>
  <g transform="matrix(0.999999 0 0 0.999999 203.78 2839.17)">
   <text x="6085.25" y="3802.15"  fill="black" font-weight="normal" font-size="490.07px" font-family="Arial"> </text>
  </g>
  <polygon fill="#5B9BD5" points="8532.24,5887.27 8532.24,7130.34 11687.26,7130.34 11687.26,5887.27 "/>
  <polygon fill="none" stroke="black" stroke-width="27.34" stroke-linecap="square" stroke-miterlimit="22.9256" points="8533.29,5888.32 11688.31,5888.32 11688.31,7131.39 8533.29,7131.39 "/>
  <g transform="matrix(0.966075 0 0 0.999999 3230.32 2628.83)">
   <text x="6085.25" y="3802.15"  fill="white" font-weight="bold" font-size="351.25px" font-family="Calibri">Моніторинг і</text>
  </g>
  <g transform="matrix(0.966075 0 0 0.999999 2834.08 3049.5)">
   <text x="6085.25" y="3802.15"  fill="white" font-weight="bold" font-size="351.25px" font-family="Calibri">зворотний зв’язок</text>
  </g>
  <line fill="none" stroke="black" stroke-width="35.75" stroke-linecap="round" stroke-linejoin="round" stroke-miterlimit="22.9256" x1="5639.09" y1="2388.35" x2="5639.09" y2= "2961.51" />
  <polygon fill="black" points="5760.04,2927.86 5636.99,3176.05 5511.84,2927.86 "/>
  <line fill="none" stroke="black" stroke-width="35.75" stroke-linecap="round" stroke-linejoin="round" stroke-miterlimit="22.9256" x1="5639.09" y1="3877.52" x2="5639.09" y2= "4450.68" />
  <polygon fill="black" points="5760.04,4419.13 5636.99,4667.33 5511.84,4419.13 "/>
  <line fill="none" stroke="black" stroke-width="35.75" stroke-linecap="round" stroke-linejoin="round" stroke-miterlimit="22.9256" x1="5639.09" y1="5368.79" x2="5639.09" y2= "5941.95" />
  <polygon fill="black" points="5760.04,5910.41 5636.99,6158.59 5511.84,5910.41 "/>
  <line fill="none" stroke="black" stroke-width="35.75" stroke-linecap="round" stroke-linejoin="round" stroke-miterlimit="22.9256" x1="7216.6" y1="6508.8" x2="8315.59" y2= "6508.8" />
  <polygon fill="black" points="8284.04,6383.65 8530.14,6506.96 8284.04,6631.84 "/>
  <polyline fill="none" stroke="black" stroke-width="35.75" stroke-linecap="round" stroke-linejoin="round" stroke-miterlimit="22.9256" points="10110.8,5888.32 10110.8,5017.53 7431.14,5017.53 "/>
  <polygon fill="black" points="7461.64,5140.58 7215.54,5017.53 7461.64,4894.49 "/>
  <polyline fill="none" stroke="black" stroke-width="35.75" stroke-linecap="round" stroke-linejoin="round" stroke-miterlimit="22.9256" points="10110.8,5888.32 10110.8,3528.36 7431.14,3528.36 "/>
  <polygon fill="black" points="7461.64,3651.41 7215.54,3528.36 7461.64,3403.22 "/>
  <polyline fill="none" stroke="black" stroke-width="35.75" stroke-linecap="round" stroke-linejoin="round" stroke-miterlimit="22.9256" points="10110.8,5888.32 10110.8,2037.09 7431.14,2037.09 "/>
  <polygon fill="black" points="7461.64,2160.14 7215.54,2036.3 7461.64,1914.05 "/>
  <path fill="none" stroke="black" stroke-width="27.34" stroke-linecap="square" stroke-miterlimit="22.9256" d="M3857.56 5368.79c-128.04,-90.18 -215.07,-221.64 -248.2,-368.08l0 -1472.35 -248.19 0 248.19 0 0 -1474.18c33.13,-146.44 120.16,-276.06 248.2,-368.35"/>
  <g>
   <path fill="black" fill-rule="nonzero" d="M3351.31 2919.44l-2918 0 0 -27.34 2918 0 14.53 13.67 -14.53 13.67zm0 -27.34l14.53 0 0 13.67 -14.53 -13.67zm-14.53 1256.75l0 -1243.08 29.06 0 0 1243.08 -14.53 13.67 -14.53 -13.67zm29.06 0l0 13.67 -14.53 0 14.53 -13.67zm-2932.53 -13.67l2918 0 0 27.34 -2918 0 -14.53 -13.67 14.53 -13.67zm0 27.34l-14.53 0 0 -13.67 14.53 13.67zm14.53 -1256.75l0 1243.08 -29.06 0 0 -1243.08 14.53 -13.67 14.53 13.67zm-29.06 0l0 -13.67 14.53 0 -14.53 13.67z"/>
  </g>
  <g transform="matrix(0.999999 0 0 0.999999 -4642.33 -395.78)">
   <text x="6085.25" y="3802.15"  fill="black" font-weight="bold" font-size="351.25px" font-family="Calibri">Фаза</text>
  </g>
  <g transform="matrix(0.999999 0 0 0.999999 -5452.12 87.9899)">
   <text x="6085.25" y="3802.15"  fill="black" font-weight="bold" font-size="351.25px" font-family="Calibri">програмування</text>
  </g>
  <g transform="matrix(0.999999 0 0 0.999999 -3083.75 87.9899)">
   <text x="6085.25" y="3802.15"  fill="black" font-weight="normal" font-size="490.07px" font-family="Arial"> </text>
  </g>
  <g>
   <path fill="black" fill-rule="nonzero" d="M3351.31 5901.99l-2918 0 0 -27.34 2918 0 14.53 13.67 -14.53 13.67zm0 -27.34l14.53 0 0 13.67 -14.53 -13.67zm-14.53 1256.74l0 -1243.07 29.06 0 0 1243.07 -14.53 13.67 -14.53 -13.67zm29.06 0l0 13.67 -14.53 0 14.53 -13.67zm-2932.53 -13.67l2918 0 0 27.34 -2918 0 -14.53 -13.67 14.53 -13.67zm0 27.34l-14.53 0 0 -13.67 14.53 13.67zm14.53 -1256.74l0 1243.07 -29.06 0 0 -1243.07 14.53 -13.67 14.53 13.67zm-29.06 0l0 -13.67 14.53 0 -14.53 13.67z"/>
  </g>
  <g transform="matrix(0.999999 0 0 0.999999 -4642.33 2586.77)">
   <text x="6085.25" y="3802.15"  fill="black" font-weight="bold" font-size="351.25px" font-family="Calibri">Фаза</text>
  </g>
  <g transform="matrix(0.999999 0 0 0.999999 -5094.55 3070.54)">
   <text x="6085.25" y="3802.15"  fill="black" font-weight="bold" font-size="351.25px" font-family="Calibri">виконання</text>
  </g>
 </g>
</svg>
