<?xml version="1.0" encoding="UTF-8"?>
<svg xmlns="http://www.w3.org/2000/svg" width="100%" height="100%" viewBox="0 0 1175.26 1175.26" xmlns:xlink="http://www.w3.org/1999/xlink">
 <g>
  <path fill="red" fill-rule="nonzero" d="M-0 587.63c0,-162.55 57.44,-300.99 172.04,-415.59 114.6,-114.6 253.04,-172.04 415.59,-172.04 162.56,0 301,57.44 415.6,172.04 114.6,114.6 172.03,253.04 172.03,415.59 0,162.55 -57.43,300.99 -172.03,415.59 -114.6,114.6 -253.04,172.04 -415.6,172.04 -162.55,0 -300.99,-57.44 -415.59,-172.04 -114.6,-114.6 -172.04,-253.04 -172.04,-415.59zm731.49 28.18c0,83.44 -16.79,149.27 -50.66,197.77 -33.86,48.22 -80.19,72.34 -138.98,72.34 -54.46,0 -113.25,-12.74 -176.1,-38.2l0 106.2c36.57,8.12 69.63,14.08 99.16,18.42 29.53,4.06 55.81,6.23 78.56,6.23 106.75,0 190.46,-36.3 251.15,-109.18 60.96,-72.61 91.3,-173.12 91.3,-301.27 0,-114.05 -26.01,-203.73 -77.76,-269.02 -51.74,-65.02 -123.27,-97.53 -214.02,-97.53 -78.3,0 -142.51,24.65 -192.36,74.23 -50.12,49.31 -75.04,112.43 -75.04,189.1 0,66.11 22.21,121.65 66.37,166.62 44.16,44.97 98.62,67.46 163.91,67.46 68.54,0 126.79,-27.63 174.47,-83.17zm-256.83 -170.68c0,-100.52 40.1,-150.91 120.56,-150.91 39.01,0 70.71,16.26 94.82,48.5 24.38,32.24 36.58,74.5 36.58,127.06 0,39.28 -12.47,72.34 -37.12,99.16 -24.92,27.09 -55.27,40.64 -91.3,40.64 -82.36,0 -123.54,-54.73 -123.54,-164.45z"/>
 </g>
</svg>
