<?xml version="1.0" encoding="UTF-8"?>
<svg xmlns="http://www.w3.org/2000/svg" width="100%" height="100%" viewBox="0 0 1175.26 1175.26" xmlns:xlink="http://www.w3.org/1999/xlink">
 <g>
  <path fill="red" fill-rule="nonzero" d="M-0 587.63c0,-162.55 57.44,-300.99 172.04,-415.59 114.6,-114.6 253.04,-172.04 415.59,-172.04 162.56,0 301,57.44 415.6,172.04 114.6,114.6 172.03,253.04 172.03,415.59 0,162.55 -57.43,300.99 -172.03,415.59 -114.6,114.6 -253.04,172.04 -415.6,172.04 -162.55,0 -300.99,-57.44 -415.59,-172.04 -114.6,-114.6 -172.04,-253.04 -172.04,-415.59zm356 361.68l497.41 0 0 -117.04 -329.98 0c13.27,-48.76 54.45,-100.78 123.81,-156.32l49.85 -39.55c104.3,-83.18 156.32,-163.37 156.32,-240.58 0,-62.58 -23.57,-112.43 -70.71,-149.55 -47.14,-37.39 -110,-56.08 -188.29,-56.08 -34.95,0 -70.44,3.52 -106.75,10.29 -36.3,7.05 -73.15,17.61 -110.53,31.97l0 108.91c70.98,-36.84 133.29,-55.26 186.93,-55.26 87.78,0 131.67,38.74 131.67,115.95 0,66.65 -49.85,143.86 -149.28,231.91l-61.22 53.1c-42.27,37.66 -85.35,85.88 -129.23,145.21l0 117.04z"/>
 </g>
</svg>
