<?xml version="1.0" encoding="iso-8859-1"?>
<!-- Generator: Adobe Illustrator 19.0.0, SVG Export Plug-In . SVG Version: 6.00 Build 0)  -->
<svg version="1.1" id="Capa_1" xmlns="http://www.w3.org/2000/svg" xmlns:xlink="http://www.w3.org/1999/xlink" x="0px" y="0px"
	 viewBox="0 0 512.005 512.005" style="enable-background:new 0 0 512.005 512.005;" xml:space="preserve">
<path style="fill:#4CAF50;" d="M382.615,229.379l-42.667-74.667c-1.755-3.534-5.472-5.658-9.408-5.376
	c-3.884,0.041-7.439,2.19-9.28,5.611l-74.667,138.667c-1.745,3.24-1.697,7.151,0.128,10.347l42.667,74.667
	c1.902,3.33,5.445,5.382,9.28,5.376h0.128c3.884-0.041,7.439-2.19,9.28-5.611l74.667-138.667
	C384.488,236.485,384.439,232.574,382.615,229.379z"/>
<path style="fill:#FFC107;" d="M501.335,298.669h-128c-4.037,0-7.728,2.279-9.536,5.888l-32,64
	c-2.639,5.267-0.509,11.676,4.758,14.315c1.483,0.743,3.119,1.13,4.778,1.13h128c4.037,0,7.728-2.279,9.536-5.888l32-64
	c2.639-5.267,0.509-11.676-4.758-14.315C504.63,299.056,502.994,298.669,501.335,298.669z"/>
<path style="fill:#2196F3;" d="M428.183,272.152c1.927,3.217,5.402,5.185,9.152,5.184h64c5.891,0.001,10.668-4.773,10.669-10.664
	c0-1.932-0.524-3.828-1.517-5.485l-64-106.667c-1.927-3.217-5.402-5.185-9.152-5.184h-64c-5.891-0.001-10.668,4.773-10.669,10.664
	c0,1.932,0.524,3.828,1.517,5.485L428.183,272.152z"/>
<path style="fill:#B0BEC5;" d="M341.335,405.336c-7.938-0.004-15.587-2.98-21.44-8.341c-5.694,5.208-13.085,8.172-20.8,8.341
	c-11.586,0.094-22.333-6.029-28.16-16.043l-42.667-74.667c-5.515-9.584-5.66-21.344-0.384-31.061l74.667-138.667
	c5.48-10.24,16.078-16.706,27.691-16.896c8.092-0.165,15.931,2.818,21.867,8.32c3.104-2.702,6.685-4.8,10.56-6.187V96.003
	c0-29.455-23.878-53.333-53.333-53.333h-21.333c-5.891,0-10.667,4.776-10.667,10.667v91.307c-0.058,4.537-2.909,8.568-7.168,10.133
	l-35.2,11.584c-12.916,4.499-21.587,16.659-21.632,30.336v261.973c0,5.891,4.776,10.667,10.667,10.667h85.333
	c29.455,0,53.333-23.878,53.333-53.333v-10.667H341.335z"/>
<path style="fill:#CFD8DC;" d="M266.668,0.003c-29.351-0.029-58.55,4.219-86.677,12.608L38.06,55.277
	C15.447,62.037-0.034,82.855,0.001,106.456v301.227c-0.067,22.305,13.754,42.296,34.645,50.112l122.923,46.08
	c14.43,5.371,29.702,8.124,45.099,8.128c17.673,0,32-14.327,32-32V196.696c0.058-4.537,2.909-8.568,7.168-10.133l35.2-11.584
	c12.912-4.504,21.581-16.661,21.632-30.336V32.003C298.668,14.329,284.341,0.003,266.668,0.003z"/>
<path d="M298.668,384.003c-3.835,0.006-7.378-2.046-9.28-5.376l-42.667-74.667c-1.825-3.196-1.873-7.107-0.128-10.347
	l74.667-138.667c1.841-3.42,5.396-5.57,9.28-5.611c3.929-0.273,7.634,1.849,9.387,5.376l42.667,74.667
	c1.825,3.196,1.873,7.107,0.128,10.347l-74.667,138.667c-1.841,3.42-5.396,5.57-9.28,5.611H298.668z M268.183,298.52l30.208,52.843
	l62.741-116.523l-30.187-52.864L268.183,298.52z"/>
<path d="M469.335,384.003h-128c-5.891,0-10.667-4.776-10.666-10.667c0-1.659,0.387-3.295,1.13-4.778l32-64
	c1.808-3.609,5.499-5.888,9.536-5.888h128c5.891,0,10.667,4.776,10.666,10.667c0,1.659-0.387,3.295-1.13,4.778l-32,64
	C477.062,381.724,473.371,384.003,469.335,384.003z M358.593,362.669h104.171l21.333-42.667H379.927L358.593,362.669z"/>
<path d="M501.335,277.336h-64c-3.75,0.001-7.225-1.967-9.152-5.184l-64-106.667c-3.028-5.053-1.386-11.604,3.667-14.632
	c1.657-0.993,3.553-1.517,5.485-1.517h64c3.75-0.001,7.225,1.967,9.152,5.184l64,106.667c3.028,5.053,1.386,11.604-3.667,14.632
	C505.162,276.812,503.267,277.336,501.335,277.336z M443.372,256.003h39.125l-51.2-85.333h-39.125L443.372,256.003z"/>
<path d="M202.668,512.003c-15.379,0.011-30.635-2.749-45.035-8.149L34.604,457.709c-20.769-7.869-34.531-27.732-34.603-49.941
	V106.413c-0.16-23.627,15.335-44.507,37.995-51.2l142.059-42.411c28.094-8.462,57.273-12.774,86.613-12.8c17.673,0,32,14.327,32,32
	v112.619c-0.017,13.754-8.82,25.959-21.867,30.315l-34.837,11.605c-4.376,1.458-7.32,5.563-7.296,10.176v283.285
	C234.668,497.676,220.341,512.003,202.668,512.003z M266.668,21.336c-27.256-0.006-54.366,3.976-80.469,11.819l0,0L44.14,75.821
	c-13.549,4.006-22.836,16.463-22.805,30.592v301.355c0.085,13.294,8.343,25.165,20.779,29.867l123.008,46.229
	c12.004,4.511,24.723,6.817,37.547,6.805c5.891,0,10.667-4.776,10.667-10.667V196.717c0.017-13.754,8.82-25.959,21.867-30.315
	l34.837-11.605c4.376-1.458,7.32-5.563,7.296-10.176V32.003C277.335,26.112,272.559,21.336,266.668,21.336z"/>
<path d="M352.001,128.003c-5.891,0-10.667-4.776-10.667-10.667V96.003c0-17.673-14.327-32-32-32h-21.333
	c-5.891,0-10.667-4.776-10.667-10.667s4.776-10.667,10.667-10.667h21.333c29.455,0,53.333,23.878,53.333,53.333v21.333
	C362.668,123.227,357.892,128.003,352.001,128.003z"/>
<path d="M309.335,469.336h-85.333c-5.891,0-10.667-4.776-10.667-10.667s4.776-10.667,10.667-10.667h85.333c17.673,0,32-14.327,32-32
	c0-5.891,4.776-10.667,10.667-10.667c5.891,0,10.667,4.776,10.667,10.667C362.668,445.458,338.79,469.336,309.335,469.336z"/>
<g>
</g>
<g>
</g>
<g>
</g>
<g>
</g>
<g>
</g>
<g>
</g>
<g>
</g>
<g>
</g>
<g>
</g>
<g>
</g>
<g>
</g>
<g>
</g>
<g>
</g>
<g>
</g>
<g>
</g>
</svg>
