<?xml version="1.0" encoding="UTF-8"?>
<svg xmlns="http://www.w3.org/2000/svg" width="100%" height="100%" viewBox="0 0 1175.26 1175.26" xmlns:xlink="http://www.w3.org/1999/xlink">
 <g>
  <path fill="red" fill-rule="nonzero" d="M-0 587.63c0,-162.55 57.44,-300.99 172.04,-415.59 114.6,-114.6 253.04,-172.04 415.59,-172.04 162.56,0 301,57.44 415.6,172.04 114.6,114.6 172.03,253.04 172.03,415.59 0,162.55 -57.43,300.99 -172.03,415.59 -114.6,114.6 -253.04,172.04 -415.6,172.04 -162.55,0 -300.99,-57.44 -415.59,-172.04 -114.6,-114.6 -172.04,-253.04 -172.04,-415.59zm385.26 366.56c31.69,7.85 64.47,13.81 98.07,18.15 33.59,4.06 68.27,6.23 103.49,6.23 88.05,0 156.86,-19.23 206.71,-57.71 49.58,-38.47 74.51,-91.3 74.51,-158.76 0,-104.84 -61.77,-171.76 -185.58,-200.21 109.72,-36.03 164.45,-97.8 164.45,-185.04 0,-59.33 -20.32,-103.49 -60.96,-132.75 -40.91,-29.53 -101.87,-44.16 -183.42,-44.16 -36.57,0 -72.33,2.71 -107.01,8.4 -34.41,5.69 -68,14.36 -100.51,25.74l0 102.41c62.04,-29.26 120.29,-43.89 174.74,-43.89 83.99,0 125.98,33.59 125.98,100.78 0,49.04 -17.88,83.44 -53.37,102.68 -35.49,19.23 -98.34,28.99 -188.83,28.99l0 89.4c96.72,0 164.18,10.84 202.65,32.24 38.2,21.4 57.43,59.6 57.43,114.33 0,37.66 -13.27,67.73 -40.09,90.76 -26.55,22.76 -62.05,34.14 -105.93,34.14 -47.96,0 -108.92,-13.55 -182.33,-40.64l0 108.91z"/>
 </g>
</svg>
