<?xml version="1.0" encoding="UTF-8"?>
<svg xmlns="http://www.w3.org/2000/svg" width="100%" height="100%" viewBox="0 0 1175.26 1175.26" xmlns:xlink="http://www.w3.org/1999/xlink">
 <g>
  <path fill="red" fill-rule="nonzero" d="M-0 587.63c0,-162.55 57.44,-300.99 172.04,-415.59 114.6,-114.6 253.04,-172.04 415.59,-172.04 162.56,0 301,57.44 415.6,172.04 114.6,114.6 172.03,253.04 172.03,415.59 0,162.55 -57.43,300.99 -172.03,415.59 -114.6,114.6 -253.04,172.04 -415.6,172.04 -162.55,0 -300.99,-57.44 -415.59,-172.04 -114.6,-114.6 -172.04,-253.04 -172.04,-415.59zm451.9 -20.86c0,-86.97 16.53,-154.7 49.31,-203.19 32.78,-48.5 78.84,-72.61 137.63,-72.61 53.37,0 114.33,15.17 182.06,45.52l0 -108.91c-37.12,-8.94 -71.26,-15.45 -102.14,-19.78 -31.16,-4.07 -59.33,-6.23 -84.8,-6.23 -106.47,0 -189.37,35.49 -248.16,106.47 -58.79,70.71 -88.32,170.14 -88.32,298.28 0,117.04 25.73,208.34 77.21,273.91 51.75,65.56 123.54,98.34 215.38,98.34 78.84,0 143.32,-24.65 193.17,-74.23 50.12,-49.58 75.04,-113.25 75.04,-191.27 0,-66.65 -21.67,-121.65 -65.02,-165.26 -43.34,-43.35 -97.8,-65.03 -163.9,-65.03 -72.34,0 -131.4,27.91 -177.46,83.99zm258.46 167.97c0,100.78 -40.1,151.18 -120.56,151.18 -39.01,0 -70.71,-15.99 -94.82,-47.96 -24.38,-31.97 -36.58,-73.96 -36.58,-125.71 0,-39.55 12.47,-72.6 37.12,-99.69 24.93,-26.83 55.54,-40.37 92.11,-40.37 81.82,0 122.73,54.18 122.73,162.55z"/>
 </g>
</svg>
