<svg height="496pt" viewBox="0 0 496 496" width="496pt" xmlns="http://www.w3.org/2000/svg"><path d="m488 248c0 132.546875-107.453125 240-240 240s-240-107.453125-240-240 107.453125-240 240-240 240 107.453125 240 240zm0 0" fill="#85d3c1"/><path d="m440.320312 175.679688c-8.398437-8.398438-17.28125-16.238282-26.71875-23.441407-9.363281-7.199219-19.28125-13.839843-29.601562-19.839843-20.398438-11.757813-42.398438-20.957032-65.601562-27.199219-11.359376-3.039063-22.957032-5.359375-34.878907-6.878907-11.597656-1.519531-23.441406-2.320312-35.519531-2.320312s-23.921875.800781-35.519531 2.320312c-11.921875 1.519532-23.519531 3.839844-34.878907 6.878907-23.203124 6.242187-45.203124 15.441406-65.601562 27.199219-10.320312 6-20.238281 12.640624-29.601562 19.839843-9.4375 7.203125-18.320313 15.042969-26.71875 23.441407-5.441407 5.441406-10.71875 11.121093-15.679688 17.039062v174.882812c.078125-57.28125 23.359375-109.121093 60.960938-146.640624 12.800781-12.882813 27.277343-24 43.117187-33.039063 15.523437-9.121094 32.320313-16.160156 50.082031-20.800781 17.199219-4.640625 35.199219-7.121094 53.839844-7.121094s36.640625 2.480469 53.839844 7.121094c17.761718 4.640625 34.558594 11.679687 50.082031 20.800781 15.839844 9.039063 30.316406 20.15625 43.117187 33.039063 37.601563 37.519531 60.882813 89.359374 60.960938 146.640624v-174.882812c-4.960938-5.917969-10.238281-11.597656-15.679688-17.039062zm0 0" fill="#ff958a"/><path d="m456 128.398438v64.320312c-4.960938-5.917969-10.238281-11.597656-15.679688-17.039062-8.398437-8.398438-17.28125-16.238282-26.71875-23.441407-9.363281-7.199219-19.28125-13.839843-29.601562-19.839843-20.398438-11.757813-42.398438-20.957032-65.601562-27.199219-11.359376-3.039063-22.957032-5.359375-34.878907-6.878907-11.597656-1.519531-23.441406-2.320312-35.519531-2.320312s-23.921875.800781-35.519531 2.320312c-11.921875 1.519532-23.519531 3.839844-34.878907 6.878907-23.203124 6.242187-45.203124 15.441406-65.601562 27.199219-10.320312 6-20.238281 12.640624-29.601562 19.839843-9.4375 7.203125-18.320313 15.042969-26.71875 23.441407-5.441407 5.441406-10.71875 11.121093-15.679688 17.039062v-64.320312c14.320312-25.039063 33.039062-47.117188 55.121094-65.359376l.878906.960938h304l.878906-.960938c22.082032 18.242188 40.800782 40.320313 55.121094 65.359376zm0 0" fill="#f5f7fa"/><path d="m400 368h55.761719c-41.441407 71.761719-118.960938 120-207.761719 120s-166.320312-48.238281-207.761719-120zm0 0" fill="#f5f7fa"/><path d="m395.039062 220.960938c-12.800781-12.882813-27.277343-24-43.117187-33.039063-15.523437-9.121094-32.320313-16.160156-50.082031-20.800781-17.199219-4.640625-35.199219-7.121094-53.839844-7.121094s-36.640625 2.480469-53.839844 7.121094c-17.761718 4.640625-34.558594 11.679687-50.082031 20.800781-15.839844 9.039063-30.316406 20.15625-43.117187 33.039063-37.601563 37.519531-60.882813 89.359374-60.960938 146.640624 0 .160157.078125.320313.238281.398438h415.523438c.160156-.078125.238281-.238281.238281-.398438-.078125-57.28125-23.359375-109.121093-60.960938-146.640624zm-211.039062-12.960938c9.839844 0 18.238281 5.839844 21.921875 14.238281 1.359375 2.960938 2.078125 6.320313 2.078125 9.761719 0 13.28125-10.71875 24-24 24-9.121094 0-17.039062-5.039062-21.121094-12.558594-1.839844-3.363281-2.878906-7.28125-2.878906-11.441406 0-13.28125 10.71875-24 24-24zm204 100.800781c-3.519531 2-7.601562 3.199219-12 3.199219-13.28125 0-24-10.71875-24-24 0-8.320312 4.160156-15.601562 10.558594-19.921875 3.839844-2.558594 8.480468-4.078125 13.441406-4.078125 13.28125 0 24 10.71875 24 24 0 8.878906-4.800781 16.640625-12 20.800781zm0 0" fill="#f9d48a"/><path d="m388 308.800781c-3.519531 2-7.601562 3.199219-12 3.199219-13.28125 0-24-10.71875-24-24 0-8.320312 4.160156-15.601562 10.558594-19.921875 3.839844-2.558594 8.480468-4.078125 13.441406-4.078125 13.28125 0 24 10.71875 24 24 0 8.878906-4.800781 16.640625-12 20.800781zm0 0" fill="#ff958a"/><path d="m205.921875 222.238281c1.359375 2.960938 2.078125 6.320313 2.078125 9.761719 0 13.28125-10.71875 24-24 24-9.121094 0-17.039062-5.039062-21.121094-12.558594-1.839844-3.363281-2.878906-7.28125-2.878906-11.441406 0-13.28125 10.71875-24 24-24 9.839844 0 18.238281 5.839844 21.921875 14.238281zm0 0" fill="#ff958a"/><path d="m232 400h48v32h-48zm0 0" fill="#85d3c1"/><path d="m344 416c0 8.835938-7.164062 16-16 16s-16-7.164062-16-16 7.164062-16 16-16 16 7.164062 16 16zm0 0" fill="#ff958a"/><path d="m152 400h48v32h-48zm0 0" fill="#85d3c1"/><g fill="#232323"><path d="m248 0c-136.742188 0-248 111.257812-248 248s111.257812 248 248 248 248-111.257812 248-248-111.257812-248-248-248zm-64 264c17.648438 0 32-14.351562 32-32 0-1.457031-.238281-2.847656-.433594-4.257812 8.007813-1.839844 16.175782-3.023438 24.433594-3.476563v48.140625c-46.550781 3.867188-83.726562 41.042969-87.59375 87.59375h-48.160156c2.347656-41.832031 22.960937-80.792969 56.339844-106.351562 5.847656 6.320312 14.140624 10.351562 23.414062 10.351562zm-16-32c0-8.824219 7.175781-16 16-16s16 7.175781 16 16-7.175781 16-16 16-16-7.175781-16-16zm88 56.40625c5.519531.554688 10.871094 1.664062 16 3.289062l-16 37.335938zm0-16v-47.980469c14.167969.796875 28.023438 3.664063 41.199219 8.46875l-18.894531 44.089844c-7.105469-2.375-14.570313-3.9375-22.304688-4.578125zm-16 16v71.59375h-71.59375c3.761719-37.734375 33.859375-67.832031 71.59375-71.59375zm46.6875 9.617188c22.402344 12.433593 38.242188 35.28125 40.90625 61.976562h-67.464844zm56.90625 61.976562c-2.769531-33.265625-22.515625-61.761719-50.578125-76.734375l18.878906-44.058594c14.5625 7.226563 27.921875 16.855469 39.410157 28.695313-4.496094 5.511718-7.304688 12.449218-7.304688 20.097656 0 17.648438 14.351562 32 32 32 2.535156 0 4.976562-.367188 7.34375-.929688 4.761719 13.144532 7.464844 26.851563 8.230469 40.929688zm32.40625-56c-8.824219 0-16-7.175781-16-16s7.175781-16 16-16 16 7.175781 16 16-7.175781 16-16 16zm31.785156 56c-.816406-16.761719-4.234375-33.023438-10.136718-48.585938 6.328124-5.855468 10.351562-14.140624 10.351562-23.414062 0-17.648438-14.351562-32-32-32-4.128906 0-8.054688.847656-11.679688 2.28125-13.304687-14.089844-28.984374-25.417969-46.113281-33.785156l9.144531-21.34375-14.703124-6.304688-9.152344 21.34375c-15.160156-5.625-31.144532-8.945312-47.496094-9.777344v-24.414062h-16v24.265625c-10.351562.511719-20.585938 2.023437-30.59375 4.503906-5.847656-7.707031-15.007812-12.769531-25.40625-12.769531-17.648438 0-32 14.351562-32 32 0 2.542969.375 4.992188.9375 7.367188-38.546875 28.535156-62.289062 72.945312-64.699219 120.632812h-40.039062c4.226562-106.585938 92.199219-192 199.800781-192s195.574219 85.414062 199.800781 192zm-326.722656-196.414062 14.488281 18.878906 12.695313-9.746094-14.492188-18.886719c5.023438-3.625 10.140625-7.089843 15.390625-10.335937l24.054688 41.664062c-11.457031 7.222656-22.191407 15.472656-32.070313 24.648438l-34.039062-34.039063c4.511718-4.25 9.199218-8.28125 13.972656-12.183593zm58.578125-36.296876 9.128906 22.039063 14.78125-6.128906-9.117187-22.015625c5.773437-2.191406 11.628906-4.175782 17.558594-5.960938l12.414062 46.335938c-13.023438 4.027344-25.511719 9.265625-37.367188 15.5625l-24.054687-41.664063c5.449219-2.929687 11.015625-5.625 16.65625-8.167969zm65.984375-19.863281 3.109375 23.671875 15.859375-2.089844-3.113281-23.632812c6.128906-.613281 12.304687-.976562 18.511719-1.160156v47.984375c-13.746094.503906-27.152344 2.304687-40.128907 5.273437l-12.429687-46.394531c6.015625-1.414063 12.070312-2.664063 18.191406-3.652344zm81.632812 23.671875 3.109376-23.671875c6.121093.988281 12.175781 2.238281 18.183593 3.652344l-12.429687 46.394531c-12.976563-2.96875-26.386719-4.769531-40.128906-5.273437v-47.984375c6.199218.183594 12.375.546875 18.511718 1.160156l-3.113281 23.632812zm59.972657 18.238282 9.128906-22.039063c5.640625 2.535156 11.199219 5.238281 16.65625 8.167969l-24.054687 41.664062c-11.847657-6.296875-24.335938-11.535156-37.367188-15.5625l12.414062-46.335937c5.929688 1.785156 11.785157 3.769531 17.558594 5.960937l-9.117187 22.015625zm53.21875 33.128906 14.488281-18.878906c4.773438 3.902343 9.453125 7.933593 13.972656 12.191406l-34.039062 34.039062c-9.878906-9.175781-20.613282-17.433594-32.070313-24.648437l24.054688-41.664063c5.25 3.25 10.367187 6.710938 15.390625 10.335938l-14.492188 18.886718zm47.550781 21.984375-14.464844 11.101562 9.746094 12.695313 4.71875-3.621094v61.917969c-9.945312-24.328125-24.191406-46.445313-41.816406-65.40625l34.0625-34.066407c2.65625 2.816407 5.210937 5.753907 7.753906 8.699219zm-392.246094-17.386719 34.0625 34.066406c-17.625 18.960938-31.871094 41.078125-41.816406 65.40625v-61.917968l4.71875 3.621093 9.746094-12.695312-14.464844-11.09375v-8.6875c2.542969-2.945313 5.097656-5.875 7.753906-8.699219zm408.246094-23.558594c10.289062 26.207032 16 54.6875 16 84.496094s-5.710938 58.296875-16 84.496094zm-85.921875-107.503906h-260.15625c37.125-25.230469 81.902344-40 130.078125-40s92.953125 14.769531 130.078125 40zm-280.980469 16h301.796875c19.417969 16.664062 36.042969 36.464844 49.097657 58.632812v41.542969c-52.535157-53.6875-124.28125-84.175781-199.992188-84.175781s-147.457031 30.488281-200 84.175781v-41.542969c13.054688-22.167968 29.6875-41.96875 49.097656-58.632812zm-65.097656 91.503906v168.992188c-10.289062-26.199219-16-54.6875-16-84.496094s5.710938-58.296875 16-84.496094zm216 316.496094c-80.640625 0-151.777344-41.382812-193.367188-104h386.734376c-41.589844 62.617188-112.726563 104-193.367188 104zm0 0"/><path d="m328 392c-13.230469 0-24 10.769531-24 24s10.769531 24 24 24 24-10.769531 24-24-10.769531-24-24-24zm0 32c-4.40625 0-8-3.59375-8-8s3.59375-8 8-8 8 3.59375 8 8-3.59375 8-8 8zm0 0"/><path d="m224 440h64v-48h-64zm16-32h32v16h-32zm0 0"/><path d="m144 440h64v-48h-64zm16-32h32v16h-32zm0 0"/></g></svg>