<?xml version="1.0" encoding="UTF-8"?>
<svg xmlns="http://www.w3.org/2000/svg" width="100%" height="100%" viewBox="0 0 1175.26 1175.26" xmlns:xlink="http://www.w3.org/1999/xlink">
 <g>
  <path fill="red" fill-rule="nonzero" d="M-0 587.63c0,-162.55 57.44,-300.99 172.04,-415.59 114.6,-114.6 253.04,-172.04 415.59,-172.04 162.56,0 301,57.44 415.6,172.04 114.6,114.6 172.03,253.04 172.03,415.59 0,162.55 -57.43,300.99 -172.03,415.59 -114.6,114.6 -253.04,172.04 -415.6,172.04 -162.55,0 -300.99,-57.44 -415.59,-172.04 -114.6,-114.6 -172.04,-253.04 -172.04,-415.59zm604.7 366.56l128.42 0 0 -196.69 86.15 0 0 -110.54 -86.15 0 0 -432.39 -134.92 0 -341.36 432.39 0 110.54 347.86 0 0 196.69zm-228.11 -307.23l229.74 -290.15 0 290.15 -229.74 0z"/>
 </g>
</svg>
