<?xml version="1.0" encoding="UTF-8"?>
<svg xmlns="http://www.w3.org/2000/svg" xml:space="preserve" width="100%" height="100%" version="1.1" viewBox="0 0 17026.32 10318.49"  xmlns:xlink="http://www.w3.org/1999/xlink">
 <g>
  <g>
   <polygon fill="#E5F9FF" points="6733.29,4239.9 17006.34,4239.9 17006.34,17.4 6733.29,17.4 "/>
   <path id="1" fill="#4BACC6" fill-rule="nonzero" d="M17006.34 4257.3l-10273.05 0 0 -34.8 10273.05 0 19.98 17.4 -19.98 17.4zm0 -34.8c11.03,0 19.98,7.8 19.98,17.4 0,9.6 -8.95,17.4 -19.98,17.4l0 -34.8zm19.98 -4205.1l0 4222.5 -39.96 0 0 -4222.5 19.98 -17.4 19.98 17.4zm-39.96 0c0,-9.6 8.95,-17.4 19.98,-17.4 11.03,0 19.98,7.8 19.98,17.4l-39.96 0zm-10253.07 -17.4l10273.05 0 0 34.8 -10273.05 0 -19.98 -17.4 19.98 -17.4zm0 34.8c-11.03,0 -19.98,-7.8 -19.98,-17.4 0,-9.6 8.95,-17.4 19.98,-17.4l0 34.8zm-19.98 4205.1l0 -4222.5 39.96 0 0 4222.5 -19.98 17.4 -19.98 -17.4zm39.96 0c0,9.6 -8.95,17.4 -19.98,17.4 -11.03,0 -19.98,-7.8 -19.98,-17.4l39.96 0z"/>
  </g>
  <g>
   <polygon fill="#FFEFE5" points="14.99,10300.83 5965.91,10300.83 5965.91,4293.03 14.99,4293.03 "/>
   <path id="1" fill="#F59D56" fill-rule="nonzero" d="M5965.91 10318.49l-5950.92 0 0 -35.32 5950.92 0 14.99 17.66 -14.99 17.66zm0 -35.32c8.27,0 14.99,7.91 14.99,17.66 0,9.75 -6.72,17.66 -14.99,17.66l0 -35.32zm14.99 -5990.14l0 6007.8 -29.98 0 0 -6007.8 14.99 -17.66 14.99 17.66zm-29.98 0c0,-9.75 6.72,-17.66 14.99,-17.66 8.27,0 14.99,7.91 14.99,17.66l-29.98 0zm-5935.93 -17.66l5950.92 0 0 35.32 -5950.92 0 -14.99 -17.66 14.99 -17.66zm0 35.32c-8.27,0 -14.99,-7.91 -14.99,-17.66 0,-9.75 6.72,-17.66 14.99,-17.66l0 35.32zm-14.99 5990.14l0 -6007.8 29.98 0 0 6007.8 -14.99 17.66 -14.99 -17.66zm29.98 0c0,9.75 -6.72,17.66 -14.99,17.66 -8.27,0 -14.99,-7.91 -14.99,-17.66l29.98 0z"/>
  </g>
  <polygon fill="#DDE2CD" points="6969.21,2670.71 6969.21,4030.66 9876.96,4030.66 9876.96,2670.71 "/>
  <polygon fill="none" stroke="#4BACC6" stroke-width="50" stroke-linecap="round" stroke-linejoin="round" stroke-miterlimit="22.9256" points="6969.21,4030.66 9876.96,4030.66 9876.96,2670.71 6969.21,2670.71 "/>
  <g transform="matrix(1 0 0 1 -604.19 -1653.32)">
   <text x="7966.34" y="4899.9"  fill="black" font-weight="normal" font-size="367.71px" font-family="Calibri">Керівник за</text>
  </g>
  <g transform="matrix(1 0 0 1 -582.06 -1205.66)">
   <text x="7966.34" y="4899.9"  fill="black" font-weight="normal" font-size="367.71px" font-family="Calibri">напрямком 1</text>
  </g>
  <polygon fill="#DDE2CD" points="10424.53,2670.71 10424.53,4030.66 13333.28,4030.66 13333.28,2670.71 "/>
  <polygon fill="none" stroke="#4BACC6" stroke-width="50" stroke-linecap="round" stroke-linejoin="round" stroke-miterlimit="22.9256" points="10424.53,4030.66 13333.28,4030.66 13333.28,2670.71 10424.53,2670.71 "/>
  <g transform="matrix(1 0 0 1 2851.4 -1653.32)">
   <text x="7966.34" y="4899.9"  fill="black" font-weight="normal" font-size="367.71px" font-family="Calibri">Керівник за</text>
  </g>
  <g transform="matrix(1 0 0 1 2873.54 -1205.66)">
   <text x="7966.34" y="4899.9"  fill="black" font-weight="normal" font-size="367.71px" font-family="Calibri">напрямком 2</text>
  </g>
  <polygon fill="#DDE2CD" points="13880.86,2670.71 13880.86,4030.66 16788.6,4030.66 16788.6,2670.71 "/>
  <polygon fill="none" stroke="#4BACC6" stroke-width="50" stroke-linecap="round" stroke-linejoin="round" stroke-miterlimit="22.9256" points="13880.86,4030.66 16788.6,4030.66 16788.6,2670.71 13880.86,2670.71 "/>
  <g transform="matrix(1 0 0 1 6307 -1653.32)">
   <text x="7966.34" y="4899.9"  fill="black" font-weight="normal" font-size="367.71px" font-family="Calibri">Керівник за</text>
  </g>
  <g transform="matrix(1 0 0 1 6329.13 -1205.66)">
   <text x="7966.34" y="4899.9"  fill="black" font-weight="normal" font-size="367.71px" font-family="Calibri">напрямком 3</text>
  </g>
  <polygon fill="#DDE2CD" points="10831.22,317.54 10831.22,1185.86 12926.59,1185.86 12926.59,317.54 "/>
  <polygon fill="none" stroke="#4BACC6" stroke-width="50" stroke-linecap="round" stroke-linejoin="round" stroke-miterlimit="22.9256" points="10831.22,1185.86 12926.59,1185.86 12926.59,317.54 10831.22,317.54 "/>
  <g transform="matrix(1 0 0 1 3082.81 -4032.01)">
   <text x="7966.34" y="4899.9"  fill="black" font-weight="bold" font-size="367.71px" font-family="Calibri">КЕРІВНИК</text>
  </g>
  <polygon fill="#DDE2CD" points="12419.25,1445.82 12419.25,2315.15 16153.06,2315.15 16153.06,1445.82 "/>
  <g>
   <path fill="#4BACC6" fill-rule="nonzero" d="M16153.06 2331.4l-3733.81 0 0 -32.5 3733.81 0 25.1 16.25 -25.1 16.25zm0 -32.5c13.86,0 25.1,7.28 25.1,16.25 0,8.97 -11.24,16.25 -25.1,16.25l0 -32.5zm25.1 -853.08l0 869.33 -50.2 0 0 -869.33 25.1 -16.25 25.1 16.25zm-50.2 0c0,-8.97 11.24,-16.25 25.1,-16.25 13.86,0 25.1,7.28 25.1,16.25l-50.2 0zm-3708.71 -16.25l3733.81 0 0 32.5 -3733.81 0 -25.1 -16.25 25.1 -16.25zm0 32.5c-13.86,0 -25.1,-7.28 -25.1,-16.25 0,-8.97 11.24,-16.25 25.1,-16.25l0 32.5zm-25.1 853.08l0 -869.33 50.2 0 0 869.33 -25.1 16.25 -25.1 -16.25zm50.2 0c0,8.97 -11.24,16.25 -25.1,16.25 -13.86,0 -25.1,-7.28 -25.1,-16.25l50.2 0z"/>
  </g>
  <g transform="matrix(1 0 0 1 4774.98 -2900.08)">
   <text x="7966.34" y="4899.9"  fill="black" font-weight="normal" font-size="367.71px" font-family="Calibri">Колегіальні органи</text>
  </g>
  <polygon fill="#DDE2CD" points="3192.13,4832.04 3192.13,6191.99 5609.26,6191.99 5609.26,4832.04 "/>
  <polygon fill="none" stroke="#F59D56" stroke-width="50" stroke-linecap="round" stroke-linejoin="round" stroke-miterlimit="22.9256" points="3192.13,6191.99 5609.26,6191.99 5609.26,4832.04 3192.13,4832.04 "/>
  <g transform="matrix(1 0 0 1 -4425.91 507.74)">
   <text x="7966.34" y="4899.9"  fill="black" font-weight="normal" font-size="367.71px" font-family="Calibri">Менеджер</text>
  </g>
  <g transform="matrix(1 0 0 1 -4323.81 955.39)">
   <text x="7966.34" y="4899.9"  fill="black" font-weight="normal" font-size="367.71px" font-family="Calibri">проєкту 1</text>
  </g>
  <polygon fill="#DDE2CD" points="3192.13,6758.55 3192.13,8117.5 5609.26,8117.5 5609.26,6758.55 "/>
  <polygon fill="none" stroke="#F59D56" stroke-width="50" stroke-linecap="round" stroke-linejoin="round" stroke-miterlimit="22.9256" points="3192.13,8117.5 5609.26,8117.5 5609.26,6758.55 3192.13,6758.55 "/>
  <g transform="matrix(1 0 0 1 -4425.91 2433.81)">
   <text x="7966.34" y="4899.9"  fill="black" font-weight="normal" font-size="367.71px" font-family="Calibri">Менеджер</text>
  </g>
  <g transform="matrix(1 0 0 1 -4323.81 2881.46)">
   <text x="7966.34" y="4899.9"  fill="black" font-weight="normal" font-size="367.71px" font-family="Calibri">проєкту 2</text>
  </g>
  <polygon fill="#DDE2CD" points="3192.13,8684.06 3192.13,10044.01 5609.26,10044.01 5609.26,8684.06 "/>
  <polygon fill="none" stroke="#F59D56" stroke-width="50" stroke-linecap="round" stroke-linejoin="round" stroke-miterlimit="22.9256" points="3192.13,10044.01 5609.26,10044.01 5609.26,8684.06 3192.13,8684.06 "/>
  <g transform="matrix(1 0 0 1 -4425.91 4359.88)">
   <text x="7966.34" y="4899.9"  fill="black" font-weight="normal" font-size="367.71px" font-family="Calibri">Менеджер</text>
  </g>
  <g transform="matrix(1 0 0 1 -4323.81 4807.53)">
   <text x="7966.34" y="4899.9"  fill="black" font-weight="normal" font-size="367.71px" font-family="Calibri">проєкту 3</text>
  </g>
  <polygon fill="#DDE2CD" points="404.59,5920.16 404.59,7280.11 2821.72,7280.11 2821.72,5920.16 "/>
  <polygon fill="none" stroke="#F59D56" stroke-width="50" stroke-linecap="round" stroke-linejoin="round" stroke-miterlimit="22.9256" points="404.59,7280.11 2821.72,7280.11 2821.72,5920.16 404.59,5920.16 "/>
  <g transform="matrix(1 0 0 1 -7271.01 1595.98)">
   <text x="7966.34" y="4899.9"  fill="black" font-weight="bold" font-size="367.71px" font-family="Calibri">Проєктний</text>
  </g>
  <g transform="matrix(1 0 0 1 -6726.9 2043.63)">
   <text x="7966.34" y="4899.9"  fill="black" font-weight="bold" font-size="367.71px" font-family="Calibri">офіс</text>
  </g>
  <text x="7200.18" y="681.77"  fill="#4BACC6" stroke="#6286AA" stroke-width="10" stroke-miterlimit="22.9256" font-weight="bold" font-size="388.05px" font-family="Arial">Функціональне</text>
  <text x="7200.18" y="1115.28"  fill="#4BACC6" stroke="#6286AA" stroke-width="10" stroke-miterlimit="22.9256" font-weight="bold" font-size="388.05px" font-family="Arial">управління</text>
  <text x="451.52" y="4885.66"  fill="#F59D56" stroke="#9F5C31" stroke-width="10" stroke-miterlimit="22.9256" font-weight="bold" font-size="388.05px" font-family="Arial">Проєктне</text>
  <text x="451.52" y="5319.17"  fill="#F59D56" stroke="#9F5C31" stroke-width="10" stroke-miterlimit="22.9256" font-weight="bold" font-size="388.05px" font-family="Arial">управління</text>
  <g transform="matrix(0.999999 0 0 0.999999 -7757.26 -4317.84)">
   <text x="7966.34" y="4899.9"  fill="black" font-weight="bold" font-size="493.88px" font-family="Calibri">МАТРИЧНА МОДЕЛЬ</text>
  </g>
  <g transform="matrix(0.999999 0 0 0.999999 -7757.26 -4317.84)">
   <text x="7966.34" y="5502.77"  fill="black" font-weight="bold" font-size="493.88px" font-family="Calibri">ОРГАНІЗАЦІЇ ПРОЄКТНОЇ</text>
  </g>
  <g transform="matrix(0.999999 0 0 0.999999 -7757.26 -4317.84)">
   <text x="7966.34" y="6105.64"  fill="black" font-weight="bold" font-size="493.88px" font-family="Calibri">ДІЯЛЬНОСТІ</text>
  </g>
  <line fill="none" stroke="#F59D56" stroke-width="100" stroke-miterlimit="22.9256" stroke-dasharray="200.000000 100.000000" x1="5609.26" y1="5559.89" x2="16981.41" y2= "5559.89" />
  <line fill="none" stroke="#F59D56" stroke-width="100" stroke-miterlimit="22.9256" stroke-dasharray="200.000000 100.000000" x1="5609.26" y1="7455.17" x2="16981.41" y2= "7455.17" />
  <line fill="none" stroke="#F59D56" stroke-width="100" stroke-miterlimit="22.9256" stroke-dasharray="200.000000 100.000000" x1="5609.26" y1="9360.17" x2="16981.41" y2= "9360.17" />
  <line fill="none" stroke="#4BACC6" stroke-width="100" stroke-miterlimit="22.9256" stroke-dasharray="200.000000 100.000000" x1="8361.96" y1="4030.66" x2="8361.96" y2= "10247.25" />
  <line fill="none" stroke="#4BACC6" stroke-width="100" stroke-miterlimit="22.9256" stroke-dasharray="200.000000 100.000000" x1="11906.82" y1="4030.66" x2="11906.82" y2= "10247.25" />
  <line fill="none" stroke="#4BACC6" stroke-width="100" stroke-miterlimit="22.9256" stroke-dasharray="200.000000 100.000000" x1="15416.96" y1="4030.66" x2="15416.96" y2= "10247.25" />
 </g>
</svg>
