<?xml version="1.0" encoding="UTF-8"?>
<svg xmlns="http://www.w3.org/2000/svg" xml:space="preserve" width="100%" height="100%" version="1.1" shape-rendering="geometricPrecision" text-rendering="geometricPrecision" image-rendering="optimizeQuality" fill-rule="evenodd" clip-rule="evenodd"
viewBox="0 0 7090.83 4537.25"
 xmlns:xlink="http://www.w3.org/1999/xlink">
 <g id="Layer_x0020_1">
  <metadata id="CorelCorpID_0Corel-Layer"/>
  <path fill="#419ED8" d="M-0 1180.89c0,496.22 398.61,775.14 883.36,809.97 496.19,35.66 762.47,6.25 1225.11,468.23 452.92,452.27 396.13,795.32 455.92,1237.41 43.51,321.74 36.79,436.45 229.44,617.22 316.64,297.12 1151.47,298.98 1467.76,-0.13 179,-169.28 220.63,-309.38 265.25,-616.7 55.93,-385.27 -20.91,-814.12 463.61,-1265 156.14,-145.3 316.35,-245.94 512.61,-334.05 483.49,-217.05 1587.77,108.64 1587.77,-1022.79l0 -1058.33c-820.78,0 -1600.39,-149.81 -1880.79,447.55 -135.56,288.81 -69.65,680.19 -180.98,1018.46 -164.85,500.91 -724.22,1073.99 -1360.17,1073.99 -359.08,0 -403.38,23.29 -762.26,-119.68 -379.89,-151.34 -716.14,-549.05 -856.84,-942.33 -112.85,-315.45 -34.42,-684.1 -168.08,-996.08 -123.51,-288.26 -414.32,-481.91 -717.54,-481.91l-1164.17 0 0 1164.17z"/>
  <path fill="#419ED8" d="M3527.78 1992.28c280.43,0 574.58,-91.15 732.35,-220.15 183.36,-149.9 254.25,-429.16 282.81,-707.49 51.58,-502.66 -405.6,-1047.92 -874.05,-1047.92l-246.95 0c-1167.23,0 -1217.24,1975.56 105.84,1975.56z"/>
 </g>
</svg>
