<?xml version="1.0" encoding="UTF-8"?>
<svg xmlns="http://www.w3.org/2000/svg" xml:space="preserve" width="100%" height="100%" version="1.1" viewBox="0 0 7590.02 9360.95" xmlns:xlink="http://www.w3.org/1999/xlink">
 <defs>
  <style type="text/css">
    .fil1 {fill:#0A336B}
    .fil0 {fill:#7A96B5}
    .fil2 {fill:#FA8329}
  </style>
 </defs>
 <g>
  <g>
   <path class="fil0" d="M5282.88 1437.79l-194.95 -94.23c11.24,8.13 26.64,7.85 33.26,25.01 6.68,17.29 26.15,18.7 35.18,22.81 70.01,31.99 40.41,21.87 126.51,46.41z"/>
   <path class="fil1" d="M2751.83 811.38c141.93,226.18 118.91,239.62 249.74,477.27l260.4 21.62c131.67,-231.23 91.18,-600.43 157.71,-886.63 294.55,144.57 277.04,824.89 297.3,1188.8l325.21 36.37 52.22 -589.49c337.76,5.12 726.84,155.62 993.52,284.24l194.95 94.23c792.4,532.93 1246.21,1066.11 1522.86,2213.06 208.19,863.14 158.65,2638.49 -150.78,3422.47l-4360.43 -1.98c-86.6,-653.51 1074.88,-1613.59 1370.9,-1962.12 703.61,-828.39 831.84,-900.89 1007.93,-2307.85l-383.74 -11.43c-10.43,214.9 -30.53,423.03 -70.25,622.27 -129.65,650.4 -169.95,530.12 -712.98,541.85 -223.1,4.82 -422.8,55.11 -522.83,-70.7 -91.09,-56.53 -55.97,10.22 -108.91,-153.57 -230.58,-117.28 -185,-39.32 -353.48,82.55 48.3,293.43 71.28,69.01 138.27,308.07 -667.38,671.99 -748.7,1120.71 -876.11,1227.17 -94.23,101.85 -31.42,98.41 -255.25,63.43l-48.46 -647.99c-65.73,-169.28 -437.96,224.21 -562.4,289.56 -209.42,-87.12 -393.1,-358.1 -480.36,-541.32 487.54,-845.45 930.88,-1093.41 1346.98,-2064.63 133.29,-311.06 408.01,-324.81 732.82,-442.75 -10.03,-280.24 -63.18,-206.15 54.59,-477.88 151.55,-349.67 39.11,-412.54 23.03,-677.06l-36.55 -137.53c77.3,-11.34 158.09,34.46 194.1,99.97zm141.44 -346.7c-198.44,-98.42 -204,-110.12 -467.86,-112.5l-295.98 22.75c24.7,73.24 42.31,76.02 74.08,219.71 31.77,143.68 258.51,655.85 -304.3,1215.31 -54.83,53.07 -6.58,34.27 -95.72,75.6 -68.26,31.66 -45.98,18.06 -148.21,24.87 -172.09,132.91 -190.34,456.64 -332.02,709.65 -283.52,506.35 -1244.59,1661.94 -1323.26,1940.05 177.89,237.12 683.32,874.81 868.36,971.97 151.41,-60.59 51.31,-6.28 182.96,-125.27 72.23,-62.19 -97.42,-80.87 141.18,-52.17l25.28 335.08 920.42 -27.38c4.46,-477.43 540.74,-1237.53 896.56,-1322.78 90.17,-116.69 193.75,-87.56 373.83,-86.61 159.15,0.83 263.62,-3.55 413.1,38.82 -5.51,71.39 4.8,66.87 -39.92,123.47 -156.65,294.54 -812.62,904.23 -1068.01,1159.13 -426.9,426.08 -660.29,750.37 -826.37,1486.33l-519.08 -8.03 13.09 388.03 6201.35 -4.24 7.27 -360.61 -505.53 -17.57c-18.11,-225.47 37.12,-433.9 83.87,-644.28 102.63,-461.77 203.49,-147.85 269.83,-544.92 -67.74,-35.76 -81.88,-59.01 -114.48,-116.89 -73.5,-116.53 -39.03,-432.66 -34.43,-608.84 10.65,-408.2 86.13,-223.11 181.87,-485.54 -69.08,-240.39 -93.95,-98.23 -167.81,-268.1 -209.33,-481.48 0.9,-1044.94 0.98,-1046.12 -130.24,-145.34 -201.6,-91.64 -278.27,-224.95 -67.39,-178.31 -180.19,-417.72 -215.73,-593.88 -44.84,-222.33 30.07,-156.59 -11.4,-381.97 -155.92,-70.69 -275.79,-108.32 -404.74,-250.31 -505.91,-442.75 -331.19,-564.19 -498.07,-699.22 -103.2,-83.5 -771.18,-77.65 -1062.03,-454.52 -72.61,-94.09 8.09,-27.11 -106.04,-125.21 -333.76,17.2 -230.73,158.56 -732.86,20.07 -218.77,-318.55 -173.72,-488.42 -619.24,-615.17l-333.9 -18.44 40.77 530.97c-129.72,-40.82 -130.72,-43.29 -189.54,-66.29z"/>
   <path class="fil1" d="M2540.73 2633.45l60.91 -179.49 -349.39 27.01c-300.71,-36.84 -237.33,117.73 -192.17,409.53 176.67,-26.34 392.93,-137.44 480.65,-257.05z"/>
   <path class="fil1" d="M784.73 4594.62l223.85 65.7c56.92,-162.52 109.74,-326.69 82.46,-519.06 -169.85,-19.01 -265.51,19.24 -306.31,453.36z"/>
   <path class="fil2" d="M1311.71 8677.23l13.23 674.8c423.92,-15.34 5582.77,6.01 6199.97,8.92l3.99 -683.57 -6217.19 -0.15z"/>
  </g>
 </g>
</svg>
