<?xml version="1.0" encoding="UTF-8"?>
<svg xmlns="http://www.w3.org/2000/svg" xml:space="preserve" width="100%" height="100%" version="1.1" viewBox="0 0 7055.54 8113.88">
 <g>
  <g>
   <path fill="#867067" d="M4798.2 4032.06c13.75,46.51 -67.92,99.61 267.16,128.52l84.16 1.55c-91.02,-261.28 -34.25,-1707.62 -34.25,-2093.34l144.02 118.43c6.66,-4.64 15.85,-21.38 19.71,-14.3 4.08,7.5 17.33,-10.39 22.98,-11.59 48.42,-10.29 46.43,-9.39 98.29,-9.39l-135.01 -47.99c-125.82,-48.31 -30.91,-9.57 -124.88,-84.77 -120.46,-96.4 -167.49,-56.5 -312.21,-123.74l8.35 39.01 229.47 67.8 -2.95 2077.92 -264.84 -48.11z"/>
   <path fill="#867067" d="M3421.94 4136.4c-43.1,117.21 -73.15,95.16 42.88,96.11l125.9 -7.42c103.67,-10.83 88.32,14.95 42.45,-79.32 -128.82,54.41 -33.69,25.64 -70.12,-18.27l7.97 -1320.6 -65.93 -5.14 4.83 1290.46c-43.32,101.3 23.62,62.65 -87.98,44.18z"/>
   <path fill="#867067" d="M2138.93 2751.66c50.69,35.65 189.72,-3.66 261.65,-29.96 65.26,-23.86 57.97,-29.03 88.14,-67.31l-349.79 97.27z"/>
   <path fill="#D2CBC0" d="M2240.29 4054.82c-17.27,13.4 5.82,3.63 -58.7,28.37 -0.34,0.13 -72.45,23.17 -75.9,24.13 -81.16,22.49 -125.51,28.45 -173.36,37.87 -144.43,21.68 -95.36,-10.1 -111.6,115.47 215.94,91.74 585.38,-94.36 859.46,-104.35 497.78,-18.15 554.52,196.58 738.13,115.28 157.17,-69.61 -9.97,42.06 46.5,-39.08 -116.03,-0.95 -85.98,21.1 -42.88,-96.11 -127.86,-235.17 -680.25,-214.89 -892.65,-185.88 -304.03,41.53 -237.93,52.5 -289,104.3z"/>
   <path fill="#D2CBC0" d="M3633.17 4145.77c45.87,94.27 61.22,68.49 -42.45,79.32 111.57,195.23 283.42,-88.46 784.63,-68.83 238.43,9.34 693.96,185.63 859.46,104.4 -14.15,-139.5 32.39,-2.37 -25.63,-82.52 -46.6,-64.38 5.67,-25.04 -59.66,-16.01l-84.16 -1.55c-335.08,-28.91 -253.41,-82.01 -267.16,-128.52 -13.15,-11.91 14.99,-4.71 -67.84,-38.61l-233.91 -46.65c-225.42,-32.27 -752.91,-37.67 -863.28,198.97z"/>
   <path fill="#D2CBC0" d="M4068.4 1911.55l128.29 -66.24c-68.25,5.92 -120.11,-3.27 -128.29,66.24z"/>
   <path fill="#FBFBFB" d="M2138.93 2751.66l349.79 -97.27c-30.17,38.28 -22.88,43.45 -88.14,67.31 -71.93,26.3 -210.96,65.61 -261.65,29.96zm-122.38 -722.22c-26.72,7.13 -43.95,-54.37 -49.54,189.1l3.16 1871.56c145.88,4.63 128.02,-13.92 270.12,-35.28 51.07,-51.8 -15.03,-62.77 289,-104.3 212.4,-29.01 764.79,-49.29 892.65,185.88 111.6,18.47 44.66,57.12 87.98,-44.18l-4.83 -1290.46 -322.02 -8.8 -98.4 115.32 157.48 80.37c-552.33,-111.9 46.33,200.16 -1014.28,251.52 368.64,-150.94 515.43,68.64 706,-317.94 -534,0 -460.08,57.38 -741.28,71 118.27,-48.43 330.18,-84 487.63,-91.13 371.6,-16.83 253.63,37.83 445.56,-177.6 -188.2,-84.49 -396.18,-49.5 -621.68,-48.77 105.44,-35.97 291.81,-30.27 424.87,-19.67 237.92,18.96 201.65,81.58 353.65,-79.02 99.1,-104.71 135.13,-126 242.35,-217.55l184.93 -166.16c5.16,-5.1 12.95,-12.72 17.75,-17.8 4.78,-5.07 12.37,-14.18 16.54,-18.87l30.52 -40c-135.32,42.21 -513.33,384.34 -577.76,480.57l-9.07 -130.28c-695.74,-141.96 -842.13,79.73 -1038.06,8.32 194.52,-16.23 405.14,-71.99 612.55,-78.3 80.18,-2.44 192.98,9.96 297.32,25.31 196.96,28.99 159.73,65.96 242.3,-129.23 -38.26,-31.38 -14.99,-24.87 -99.46,-65.57 -333.04,-160.45 -954.53,27.61 -1052.71,0.84 181.91,-35 417.38,-90.21 604.09,-96.19 239.62,-7.68 407.88,98.49 597.47,96.98 60.43,-76.97 43.23,-61.96 63.85,-111.69 -131.62,-128.34 -376.94,-213.37 -628.92,-215.04 -297.91,-1.96 -520.15,103.68 -769.76,127.06z"/>
   <path fill="#FBFBFB" d="M3571.02 2806.9l-7.97 1320.6c36.43,43.91 -58.7,72.68 70.12,18.27 110.37,-236.64 637.86,-231.24 863.28,-198.97l233.91 46.65c82.83,33.9 54.69,26.7 67.84,38.61l264.84 48.11 2.95 -2077.92 -229.47 -67.8 -135.41 155.78c-584.09,871.2 -629.5,402.41 -1024.11,393.15 131.1,50.9 254.18,124.41 346.78,189.61l-227.76 105.67c-73.84,16.68 -138.61,26.46 -225,28.24z"/>
   <path fill="#FBFBFB" d="M1820.73 4260.66c16.24,-125.57 -32.83,-93.79 111.6,-115.47 48.78,-211.98 19.77,-789.51 19.77,-1040.75 0,-286.29 54.66,-912.75 -68.27,-1044.22 -69.13,134.68 -74.91,45.14 -91.35,230.43 -27.41,308.7 -14.43,1885.4 28.25,1970.01z"/>
   <path fill="#FBFBFB" d="M5149.52 4162.13c65.33,-9.03 13.06,-48.37 59.66,16.01 58.02,80.15 11.48,-56.98 25.63,82.52 67.98,-136.39 29.92,-1776.24 24.48,-2073.44l-144.02 -118.43c0,385.72 -56.77,1832.06 34.25,2093.34z"/>
   <path fill="#FBFBFB" d="M3774.71 2116.66c61.08,-20.38 3.3,20.92 76.59,-29.22 109.77,-75.09 33.22,-24.65 68.27,-72.86 -74.94,22.79 -0.74,-26.22 -78.92,26.15 -91.37,61.2 -38.39,29.08 -65.94,75.93z"/>
   <path fill="#FBFBFB" d="M3919.57 2014.58c6.49,-2.3 7.89,35.3 115.41,-80.13 -158.43,58.45 2.54,-21.37 -58.69,24.34 -45.87,34.25 -34.3,28.94 -56.72,55.79z"/>
   <path fill="#391616" d="M267.7 5891.38l0 -3668.88c31.04,-106.23 3216.07,-1893.15 3260.1,-1893.36 29.03,-0.13 3227.52,1782.07 3260.04,1893.36l0 3668.88c-80.91,126.66 -628.33,400.83 -787.91,496.39 -340.63,203.95 -2395.41,1397.33 -2472.13,1396.97 -105.47,-0.5 -2385.61,-1355.05 -2851.31,-1617.37l-315.93 -179.09c-82.26,-62.69 -68.42,-74.65 -92.86,-96.9zm-267.7 -3880.59l0 4092.3c844.63,446.4 1791.53,1052.11 2622.65,1504.81 156.42,85.21 273.23,153.54 426.24,244.04l382.34 217.36c63.14,40.45 24.76,12.89 61.22,44.58l70.64 0 196.36 -121.09c86.25,-50.62 145.49,-81.82 225.12,-127.66 849.31,-489.02 2197.61,-1300.45 3070.97,-1762.04l0 -4092.3 -742.84 -417c-6.6,-3.91 -15.53,-9.08 -22.13,-13.08 -6.67,-4.04 -15.59,-9.24 -22.26,-13.36l-2705.22 -1567.35 -70.64 0 -3492.45 2010.79z"/>
   <path fill="#391616" d="M3774.71 2116.66c27.55,-46.85 -25.43,-14.73 65.94,-75.93 78.18,-52.37 3.98,-3.36 78.92,-26.15 -35.05,48.21 41.5,-2.23 -68.27,72.86 -73.29,50.14 -15.51,8.84 -76.59,29.22zm144.86 -102.08c22.42,-26.85 10.85,-21.54 56.72,-55.79 61.23,-45.71 -99.74,34.11 58.69,-24.34 -107.52,115.43 -108.92,77.83 -115.41,80.13zm148.83 -103.03c8.18,-69.51 60.04,-60.32 128.29,-66.24l-128.29 66.24zm-653.17 205.87c-20.62,49.73 -3.42,34.72 -63.85,111.69 -189.59,1.51 -357.85,-104.66 -597.47,-96.98 -186.71,5.98 -422.18,61.19 -604.09,96.19 98.18,26.77 719.67,-161.29 1052.71,-0.84 84.47,40.7 61.2,34.19 99.46,65.57 -82.57,195.19 -45.34,158.22 -242.3,129.23 -104.34,-15.35 -217.14,-27.75 -297.32,-25.31 -207.41,6.31 -418.03,62.07 -612.55,78.3 195.93,71.41 342.32,-150.28 1038.06,-8.32l9.07 130.28c64.43,-96.23 442.44,-438.36 577.76,-480.57l-30.52 40c-4.17,4.69 -11.76,13.8 -16.54,18.87 -4.8,5.08 -12.59,12.7 -17.75,17.8l-184.93 166.16c-107.22,91.55 -143.25,112.84 -242.35,217.55 -152,160.6 -115.73,97.98 -353.65,79.02 -133.06,-10.6 -319.43,-16.3 -424.87,19.67 225.5,-0.73 433.48,-35.72 621.68,48.77 -191.93,215.43 -73.96,160.77 -445.56,177.6 -157.45,7.13 -369.36,42.7 -487.63,91.13 281.2,-13.62 207.28,-71 741.28,-71 -190.57,386.58 -337.36,167 -706,317.94 1060.61,-51.36 461.95,-363.42 1014.28,-251.52l-157.48 -80.37 98.4 -115.32 322.02 8.8 65.93 5.14c86.39,-1.78 151.16,-11.56 225,-28.24l227.76 -105.67c-92.6,-65.2 -215.68,-138.71 -346.78,-189.61 394.61,9.26 440.02,478.05 1024.11,-393.15l135.41 -155.78 -8.35 -39.01 60.03 -87.92 -214.64 -67.89 277.28 -1.81 124.93 -298.97c-845.07,-130.57 -1257.28,268.33 -1660.54,678.57z"/>
   <path fill="#391616" d="M5400.27 2151.94c-51.86,0 -49.87,-0.9 -98.29,9.39 -5.65,1.2 -18.9,19.09 -22.98,11.59 -3.86,-7.08 -13.05,9.66 -19.71,14.3 5.44,297.2 43.5,1937.05 -24.48,2073.44 -165.5,81.23 -621.03,-95.06 -859.46,-104.4 -501.21,-19.63 -673.06,264.06 -784.63,68.83l-125.9 7.42c-56.47,81.14 110.67,-30.53 -46.5,39.08 -183.61,81.3 -240.35,-133.43 -738.13,-115.28 -274.08,9.99 -643.52,196.09 -859.46,104.35 -42.68,-84.61 -55.66,-1661.31 -28.25,-1970.01 16.44,-185.29 22.22,-95.75 91.35,-230.43 122.93,131.47 68.27,757.93 68.27,1044.22 0,251.24 29.01,828.77 -19.77,1040.75 47.85,-9.42 92.2,-15.38 173.36,-37.87 3.45,-0.96 75.56,-24 75.9,-24.13 64.52,-24.74 41.43,-14.97 58.7,-28.37 -142.1,21.36 -124.24,39.91 -270.12,35.28l-3.16 -1871.56c5.59,-243.47 22.82,-181.97 49.54,-189.1 -41.14,-53.03 58.18,-55.76 -61.76,-39.37 -81.11,121.14 -80.74,138.4 -282.22,141.11 -51.23,138.4 -20.16,1976.21 -20.08,2278.54l1418.08 -1.41c200.43,2.48 246.38,39.1 457.2,39.1l917.22 -37.69c319.35,0 638.71,0 958.06,0l-2.78 -2257.78z"/>
   <path fill="#391616" d="M5647.21 5253.6c-45.93,-33.28 -0.88,-22.19 -77.89,-39.97 -92.4,-21.34 -136.52,2.28 -192.59,16.43 110.78,96.94 36.2,-1.17 81.4,104.08l-125.63 275.78c-84.09,-272.92 -150.6,-235.3 -40.84,-400.86l-282.23 0c5.69,7.93 14.66,17.04 18.55,22.65l73.33 131.65 -127.91 246.56c-24.97,-80.11 -57.43,-138.79 -79.56,-207.35 -46.38,-143.66 15.73,-101.52 26.6,-170.02 2.23,-14.05 12.82,-15.27 18.44,-23.49l-287.79 0 231.31 454.69c61.75,141.64 42.93,96.4 105.16,140.76l171.22 -341.68 168.15 343.48c155.48,-168.3 108.64,-463.55 320.28,-552.71z"/>
   <path fill="#391616" d="M3556.72 5694.23c-80.21,-245.84 -88.57,-493.14 244.23,-390.79l9.04 129.33 2.04 141.4 -22.8 84.79c-101.32,46.43 -104.54,58.84 -232.51,35.27zm450.42 82.37c-44.21,-52.47 -79.27,-66.77 -79.27,-132.16l7.8 -790.66 -216.99 64.34c70.71,93.5 90.3,127.55 91.31,290.77 -306.46,-25.62 -544.02,172.24 -390.32,471.56 52.2,101.66 143.8,142.04 277.8,97.29 202.85,-67.75 82.31,55.15 309.67,-1.14z"/>
   <path fill="#391616" d="M922.79 5332.5c319.23,-128.87 337.82,160.32 235.54,391.64l-244.46 -14.71 8.92 -376.93zm412.77 168.92c11.13,-316.76 -204.33,-324.4 -422.2,-230.47l8.82 -425.46 -228.67 58.12c179.59,148.56 97.12,619.67 97.12,867.42 288.84,73.61 534.66,22.57 544.93,-269.61z"/>
   <path fill="#391616" d="M5647.21 5253.6c149.89,183.77 142.66,349.44 3.45,537.47l316.84 0.04 -90.82 -443.59c111.32,-61.99 112.62,-67.84 235.31,-35.1 26.09,66.66 41.73,196.5 29.73,299.75 -21.2,182.48 26.55,47.86 -95.06,175.4l315.37 3.54c-95.49,-118.42 -98.23,-84.95 -98.2,-288.13 0.07,-486.45 -177.07,-240.07 -361.63,-270.65 -107.41,-17.79 137.02,-71.49 -254.99,21.27z"/>
   <path fill="#391616" d="M2243.25 5277.14c315.82,-120.44 277.07,323.02 185.19,461.09 -140.43,4.75 -180.27,6.37 -213.74,-129.72 -30.2,-122.77 0.56,-239.13 28.55,-331.37zm383.61 296.74c133.43,-423.7 -419.79,-489.19 -531.16,-196.01 -170.02,447.59 403.93,600.02 531.16,196.01z"/>
   <path fill="#391616" d="M4274.32 5738.23c-78.55,-68.53 -123.45,-167.89 -96.13,-329.67 29.09,-172.32 117.09,-149.78 246.04,-123.22 79.4,170.78 125.44,460.08 -149.91,452.89zm328.09 -164.35c118.14,-376.62 -400.07,-506.72 -532.97,-197.49 -188.54,438.69 404.6,606.76 532.97,197.49z"/>
   <path fill="#391616" d="M1813.68 5729.51c-335.28,54.66 -305.95,-337.86 -213.94,-429.01 90.8,-89.95 198.74,-21.15 233.24,68.09 46.85,121.19 5.92,259.86 -19.3,360.92zm155.55 -408.29c-106.44,-101.87 -226.91,-180.49 -396,-82.01 -101.34,59.03 -216.21,228.51 -133.66,412.15 111.46,247.94 621.44,253.41 529.66,-330.14z"/>
   <path fill="#391616" d="M2704.33 5796.72l306.32 -5.61c-164.9,-204.5 -88.33,-331.89 -91.73,-937.12l-208.26 84.89c130.22,129.64 82.6,301.89 82.6,635 0,128.68 -70.46,199.43 -70.62,199.1 -2.79,-5.75 -12.94,15.91 -18.31,23.74z"/>
   <path fill="#391616" d="M3090.81 5297.79c-7.61,42.22 4.47,24.62 -17.27,66.69 -28.88,55.87 -66.95,75.52 -106.67,138.85 75.75,105.85 146.34,200.29 244.66,301.8l160.61 -28.53c-117.05,-125.58 -183.36,-163.58 -290.94,-302.83 39.33,-43.41 80.63,-109.95 126.41,-149.83 20.19,-17.58 69.77,-44.15 83.29,-53.95 56.06,-40.65 22.21,-12.54 64.89,-60.93l-251.35 0 -13.63 88.73z"/>
   <path fill="#FBF1D0" d="M1969.23 5321.22c91.78,583.55 -418.2,578.08 -529.66,330.14 -82.55,-183.64 32.32,-353.12 133.66,-412.15 169.09,-98.48 289.56,-19.86 396,82.01zm2633.18 252.66c-128.37,409.27 -721.51,241.2 -532.97,-197.49 132.9,-309.23 651.11,-179.13 532.97,197.49zm-1975.55 0c-127.23,404.01 -701.18,251.58 -531.16,-196.01 111.37,-293.18 664.59,-227.69 531.16,196.01zm3020.35 -320.28c392.01,-92.76 147.58,-39.06 254.99,-21.27 184.56,30.58 361.7,-215.8 361.63,270.65 -0.03,203.18 2.71,169.71 98.2,288.13l-315.37 -3.54c121.61,-127.54 73.86,7.08 95.06,-175.4 12,-103.25 -3.64,-233.09 -29.73,-299.75 -122.69,-32.74 -123.99,-26.89 -235.31,35.1l90.82 443.59 -316.84 -0.04c139.21,-188.03 146.44,-353.7 -3.45,-537.47zm0 0c-211.64,89.16 -164.8,384.41 -320.28,552.71l-168.15 -343.48 -171.22 341.68c-62.23,-44.36 -43.41,0.88 -105.16,-140.76l-231.31 -454.69 287.79 0c-5.62,8.22 -16.21,9.44 -18.44,23.49 -10.87,68.5 -72.98,26.36 -26.6,170.02 22.13,68.56 54.59,127.24 79.56,207.35l127.91 -246.56 -73.33 -131.65c-3.89,-5.61 -12.86,-14.72 -18.55,-22.65l282.23 0c-109.76,165.56 -43.25,127.94 40.84,400.86l125.63 -275.78c-45.2,-105.25 29.38,-7.14 -81.4,-104.08 56.07,-14.15 100.19,-37.77 192.59,-16.43 77.01,17.78 31.96,6.69 77.89,39.97zm-2542.77 -44.54l251.35 0c-42.68,48.39 -8.83,20.28 -64.89,60.93 -13.52,9.8 -63.1,36.37 -83.29,53.95 -45.78,39.88 -87.08,106.42 -126.41,149.83 107.58,139.25 173.89,177.25 290.94,302.83l-160.61 28.53c-98.32,-101.51 -168.91,-195.95 -244.66,-301.8 39.72,-63.33 77.79,-82.98 106.67,-138.85 21.74,-42.07 9.66,-24.47 17.27,-66.69l13.63 -88.73zm614.24 -290.94l216.99 -64.34 -7.8 790.66c0,65.39 35.06,79.69 79.27,132.16 -227.36,56.29 -106.82,-66.61 -309.67,1.14 -134,44.75 -225.6,4.37 -277.8,-97.29 -153.7,-299.32 83.86,-497.18 390.32,-471.56 -1.01,-163.22 -20.6,-197.27 -91.31,-290.77zm-1008.02 20.76l208.26 -84.89c3.4,605.23 -73.17,732.62 91.73,937.12l-306.32 5.61c5.37,-7.83 15.52,-29.49 18.31,-23.74 0.16,0.33 70.62,-70.42 70.62,-199.1 0,-333.11 47.62,-505.36 -82.6,-635zm-2017.15 -35.27l228.67 -58.12 -8.82 425.46c217.87,-93.93 433.33,-86.29 422.2,230.47 -10.27,292.18 -256.09,343.22 -544.93,269.61 0,-247.75 82.47,-718.86 -97.12,-867.42zm4134.66 -3008.17c144.72,67.24 191.75,27.34 312.21,123.74 93.97,75.2 -0.94,36.46 124.88,84.77l135.01 47.99 2.78 2257.78c-319.35,0 -638.71,0 -958.06,0l-917.22 37.69c-210.82,0 -256.77,-36.62 -457.2,-39.1l-1418.08 1.41c-0.08,-302.33 -31.15,-2140.14 20.08,-2278.54 201.48,-2.71 201.11,-19.97 282.22,-141.11 119.94,-16.39 20.62,-13.66 61.76,39.37 249.61,-23.38 471.85,-129.02 769.76,-127.06 251.98,1.67 497.3,86.7 628.92,215.04 403.26,-410.24 815.47,-809.14 1660.54,-678.57l-124.93 298.97 -277.28 1.81 214.64 67.89 -60.03 87.92zm-4560.47 3995.94c24.44,22.25 10.6,34.21 92.86,96.9l315.93 179.09c465.7,262.32 2745.84,1616.87 2851.31,1617.37 76.72,0.36 2131.5,-1193.02 2472.13,-1396.97 159.58,-95.56 707,-369.73 787.91,-496.39l0 -3668.88c-32.52,-111.29 -3231.01,-1893.49 -3260.04,-1893.36 -44.03,0.21 -3229.06,1787.13 -3260.1,1893.36l0 3668.88z"/>
   <path fill="#FBF1D0" d="M1813.68 5729.51c25.22,-101.06 66.15,-239.73 19.3,-360.92 -34.5,-89.24 -142.44,-158.04 -233.24,-68.09 -92.01,91.15 -121.34,483.67 213.94,429.01z"/>
   <path fill="#FBF1D0" d="M4274.32 5738.23c275.35,7.19 229.31,-282.11 149.91,-452.89 -128.95,-26.56 -216.95,-49.1 -246.04,123.22 -27.32,161.78 17.58,261.14 96.13,329.67z"/>
   <path fill="#FBF1D0" d="M2243.25 5277.14c-27.99,92.24 -58.75,208.6 -28.55,331.37 33.47,136.09 73.31,134.47 213.74,129.72 91.88,-138.07 130.63,-581.53 -185.19,-461.09z"/>
   <path fill="#FBF1D0" d="M922.79 5332.5l-8.92 376.93 244.46 14.71c102.28,-231.32 83.69,-520.51 -235.54,-391.64z"/>
   <path fill="#FBF1D0" d="M3556.72 5694.23c127.97,23.57 131.19,11.16 232.51,-35.27l22.8 -84.79 -2.04 -141.4 -9.04 -129.33c-332.8,-102.35 -324.44,144.95 -244.23,390.79z"/>
  </g>
 </g>
</svg>
