<?xml version="1.0" encoding="UTF-8"?>
<svg xmlns="http://www.w3.org/2000/svg" xml:space="preserve" width="100%" height="100%" version="1.1" viewBox="0 0 18062.22 15146.83"  xmlns:xlink="http://www.w3.org/1999/xlink">
 <defs>
  <style type="text/css">
    .fil3 {fill:#0000CC}
    .fil2 {fill:#0000D2}
    .fil5 {fill:#0000F0}
    .fil4 {fill:#F2E215}
    .fil6 {fill:#FE0101}
    .fil7 {fill:#FE7D02}
    .fil1 {fill:#FF7901}
    .fil0 {fill:#FF7A01}
  </style>
 </defs>
 <g>
  <g>
   <g>
    <path class="fil0" d="M8928.09 5329.27c-19.48,597.55 -177.08,1436.7 -254.51,2071.94 -81.81,671.25 -162.98,1428.41 -274.59,2064.84 114.52,104.2 191.47,484.89 300.28,644.46 5,7.32 12.42,16.26 17.23,22.79l38.19 44.98c36.85,-268.47 271.51,-1224.63 384.84,-1392.08l-78.3 -3421.65c7.3,-128.68 9.52,-260.32 6.7,-389.55 -2.4,-110.26 -11.97,-221.25 -72.1,-316.01 0,271.91 -69.74,455.65 -67.74,670.28z"/>
    <path class="fil0" d="M12772.2 11537.59c-228.22,10.07 -599.42,-182.72 -769.45,-301.37l126.64 3009.73c88.49,-182.24 509.83,-2287.75 642.81,-2708.36z"/>
    <path class="fil0" d="M10947.47 12164.72l470.09 2218.09c150.8,-424.97 24.27,-2211.19 199.1,-2548.21 -138.13,-97.86 -141.25,-449.38 -180.28,-620.61 -176.79,196.65 -317.01,815.79 -488.91,950.73z"/>
    <path class="fil0" d="M6480.35 11475.79l425.31 2332.81 286.98 -2105.46 -551.06 -785.94c-69.99,170.17 -63.44,304.16 -99.17,426.21l-62.06 132.38z"/>
    <path class="fil0" d="M12029.95 9462.27c115.99,44.42 206.59,454.27 235.69,564.17 197.29,-101.74 295.57,-358.42 504.91,-426.25 -156.61,-251.5 -130.58,-1542.42 -210.26,-2054.92 -75.2,138.84 -448.35,1626.9 -530.34,1917z"/>
    <path class="fil0" d="M4802.85 10213.99c136.32,72.27 274.43,182 431.72,242.55l386.52 -1191.9 69.64 103.73c6.08,-83.47 -151.33,-1758.52 -178.89,-1895.56l-20.81 55.07c-2.59,9.18 -6.07,19.13 -8.62,29.64 -20.71,85.4 3.6,-30.88 -12.17,64.76l-115.63 1126.61c-41.42,382.36 -62.35,900.36 -149.52,1266l-404.29 -654.48 2.05 853.58z"/>
    <path class="fil0" d="M6173.56 9859.62c64.46,52.5 126.18,118.61 176.44,159.13 120.93,-127.15 161.14,-307.43 282.13,-380.95 -74.18,-469.47 -198.2,-2960.39 -282.13,-3141.31 -62.64,218.82 -61.26,1360.29 -76.45,1688.49 -17.91,386.98 -11.83,1374.99 -99.99,1674.64z"/>
    <path class="fil0" d="M4468.84 11958.1c200.01,391.05 274.71,1059.03 463.23,1440.62l131.83 -1401.77c-73.95,-1.35 -52.62,-19.82 -125.01,-103.4l-470.05 64.55z"/>
    <path class="fil0" d="M5676.62 11648.06c232.35,454.84 367.55,1559.16 518.51,2149.26l15.46 -1693.27c-151.24,-138.27 -261.97,-314.71 -401.07,-485.76 -98.01,37.93 -4.34,17.26 -132.9,29.77z"/>
    <path class="fil0" d="M5186.69 12272.9l300.37 1528.21 22.03 -1829.18c-109.97,67.29 -81.34,69.12 -151.72,161.22 -5.24,6.86 -80.86,91.5 -82.37,92.7 -60.65,48.4 -5.5,26.51 -88.31,47.05z"/>
    <path class="fil0" d="M13365.57 11667.09c-160.2,85.78 -181.07,26.35 -371.32,0.42 35.45,163.12 79.25,281.44 126.54,438.94l152.32 432.62 92.46 -871.98z"/>
   </g>
   <g>
    <path class="fil1" d="M7303.85 5576.22l-255.69 3261.64c7.46,-7.01 17.97,-28.51 21.32,-22.11 3.27,6.26 16.18,-16.76 20.52,-21.9l35.84 -42.63c23.08,-29.9 36.62,-56.17 58.54,-89.75l287.55 1602.33 280.19 -1021.11c108.9,72.54 82.57,171.35 200.47,273.23l-565.84 -4010.26 -15.98 -246.87 -68.27 -0.07 1.35 317.5z"/>
    <path class="fil1" d="M11217.75 5964.27l-353.98 2999.19c164.94,208.67 158.68,753.67 284.01,1041.38 161.65,-138.8 337.39,-686.14 520.25,-842.76l-295.91 -3056.7c-18.87,-168.7 -47.95,-443.72 -47.95,-670.28l-70.56 0c0,234.25 -34.43,305.2 -35.86,529.17z"/>
    <path class="fil1" d="M9561.09 8967.27c175.57,209.53 170.63,641.13 316.69,897.19 192.1,-211.47 308.07,-813.81 533.63,-941.83l-392.52 -2490.31c-104.85,214.65 -369.24,2122.83 -457.8,2534.95z"/>
    <path class="fil1" d="M8721.43 12679.53c47.08,373.2 93.89,1756.4 178.41,1986.33 118.42,-346.74 217.98,-904.36 308.05,-1291.14 87.55,-376.01 207.58,-980.06 326.66,-1291.3 -149.63,-85.71 -205.61,-279.75 -323.2,-412.41l-39.13 -37.4c-147.42,229.2 -301.31,914.14 -450.79,1045.92z"/>
    <path class="fil1" d="M9804.7 11997.36l205.47 2061.82c5.13,-8.6 12.39,-32.51 14.68,-27.14l257.69 -1062.63c85.06,-370.55 157.43,-772.78 270.93,-1106.73 -150.37,40.98 -274.13,-374.94 -525.81,-663.26 -94.19,218.28 -80.64,603.12 -222.96,797.94z"/>
    <polygon class="fil1" points="7575.8,11529.82 8261.98,14224.54 8317.09,12569.89 8046.67,11319.6 "/>
   </g>
   <g>
    <path class="fil2" d="M14816.66 14527.41c117.86,-31.63 306.3,-225.96 379.99,-313.82 152.58,-181.89 109.79,-316.78 109.26,-594.02l0.01 -7196.69c1.22,-520.96 46.6,-1181.86 -200.49,-1597.54 -33.67,-56.65 -36.8,-43.23 -71.48,-104.29 -123.63,-217.67 29.54,-60.11 -156.52,-227.07 -5.55,-4.98 -13.92,-11.48 -19.35,-16.67 -107.59,-102.72 -30.82,-73.97 -154.1,-157.08l-134.26 -84.39c336.27,1101.4 246.94,1273.8 246.94,2398.71l0 7892.86z"/>
    <path class="fil2" d="M3245.56 14527.41l-0.83 -8987.3c-1.18,-286.77 49.07,-574.34 109.01,-843.68 24.09,-108.28 57.63,-162.08 68.2,-275.02 -349.52,30.8 -467.17,403.95 -605.07,791.69 -125.87,353.96 -60.52,3646.12 -60.52,4173.12l-0.04 4233.35c-0.54,282.64 -34.03,416 108.57,596.56 70.3,89.01 279.42,264.27 380.68,311.28z"/>
   </g>
   <g>
    <path class="fil3" d="M70.38 10867.88c0,-205 -64.09,-401.26 -5.85,-599.72l233.75 -305.35c176.43,-272.73 381.84,-1099.79 550.89,-1499.78 235.91,-558.21 611.26,-1131.48 1093.52,-1508.21 527.77,-412.28 654.98,-291.66 638.03,-1131.71 -12.89,-638.65 185.12,-1394.4 413.39,-1910.27 1453.18,-3284.06 6476.87,-4278.62 9744.68,-2429.46 992.55,561.66 1774.21,1251.14 2295.58,2362.97 717.63,1530.38 285.58,2347.31 526.7,2607.59 333.61,360.13 507.68,393.91 788.35,660.07 97.6,92.55 159.8,209.74 251.41,312.56 47.65,53.48 88.27,86.23 127.38,148.4 33.9,53.9 24.89,48.86 48.69,91.57 58.45,104.86 1.82,17.66 72.83,110.16 176.1,229.39 263.04,467.98 395.98,760.58 60.88,134 111.71,274.12 149.91,407.78 26.72,93.47 34.91,125.8 57.86,224.09l89.05 239.69c26.45,48.27 57,158.77 71.08,201.89l241.85 501.82c17.57,45.09 23.46,99.86 32.32,149.76l174.44 39.18c0,-1223.42 -413.75,-2692.95 -1225.19,-3535.36 -417.9,-433.85 -425.8,-384.19 -891.48,-696.03 0,-1176.79 -34.59,-1693.87 -540.5,-2705.05 -323.6,-646.8 -937.77,-1330.71 -1484.86,-1760.69 -2721.34,-2138.82 -7056.01,-2139.46 -9778.16,0 -890.04,699.52 -1692.2,1792.74 -1922.87,2945.46 -102.59,512.64 -102.49,892.39 -102.49,1520.28 -381.82,255.68 -640.22,376.3 -957.83,770.79 -69.22,85.97 -116.64,144.37 -186.82,236.52 -635.08,833.9 -922,1942.93 -972.02,3022.14l0 623.08c1.72,20.13 3.23,37.32 3.35,37.74 35.72,124.49 -42.82,34.72 67.03,107.51z"/>
    <path class="fil3" d="M13687.86 8080.94l-0.8 1820.69 -1.68 1547.91 2.94 1711.4c-4.94,824.42 -228.92,1672.53 705.01,1693.33l0 -8925.28c-337.51,28.09 -489.24,137.37 -705.55,282.23l0.08 1869.72z"/>
    <path class="fil3" d="M4374.57 13548.99l2.11 -1643.62 0.16 -1972.08 -2.62 -1358.46 0.23 -2363.61c-216.32,-144.86 -368.05,-254.14 -705.56,-282.23l0 8925.28c265.21,-5.91 550.86,-155.93 658.15,-329.63 104.3,-168.85 47.17,-722.28 47.53,-975.65z"/>
   </g>
   <g>
    <path class="fil4" d="M7192.64 11703.14l-286.98 2105.46 -425.31 -2332.81 -269.72 -281.32 -0.04 909.58 -15.46 1693.27c-150.96,-590.1 -286.16,-1694.42 -518.51,-2149.26l-170.61 -421.43 3.08 745.3 -22.03 1829.18 -300.37 -1528.21 -73.94 -400.61c-22.31,35.46 -32.51,-49.62 -48.85,124.66l-131.83 1401.77c-188.52,-381.59 -263.22,-1049.57 -463.23,-1440.62l-92.16 -52.73 -2.11 1643.62c154.65,103.8 341.11,323.59 484.94,467.43 87.2,87.2 156.69,166.21 246.88,247.02 293.09,262.62 1392.73,724.97 1800.23,655.22 423.22,-72.44 516.85,-797.66 1136.43,41.72 184.99,250.62 238.01,176.05 811.67,176.11 818.55,0.09 450.77,6.19 776.11,-211.66 121.36,81.26 122.02,171.46 272.45,168.78 530.94,-9.44 554.56,-584.89 821.16,-662.67 290.86,-84.87 309.3,487.84 851.93,324.49 307.52,-92.57 621.24,-215.1 870.3,-366.15 103.34,-62.67 287.46,-162.55 356.37,-243.35 40.55,-47.55 14.18,2.39 52.62,-88.5 23.31,-55.12 21.7,-76.01 42.33,-134.06 38.46,-108.22 54.51,-121.19 111.35,-206.15 121.27,-181.3 138.72,-170.65 298.45,-301.26 104.78,-85.67 247.77,-219.84 380.53,-255.02l-2.94 -1711.4 -118.88 99.84c-110.49,-72.07 -75.35,-85.11 -156.73,-188.59l-44.2 306.3 -92.46 871.98 -152.32 -432.62c-47.29,-157.5 -91.09,-275.82 -126.54,-438.94 -17.48,-46.93 -50.32,-146.33 -69.74,-209.62l-95.58 -207.79 -56.73 287.49c-132.98,420.61 -554.32,2526.12 -642.81,2708.36l-126.64 -3009.73 -12.24 -161.92c-134.11,168.67 -98.96,151.64 -198.87,366.67 -66.96,144.12 -142.27,246.47 -174.98,393.63 -174.83,337.02 -48.3,2123.24 -199.1,2548.21l-470.09 -2218.09c-2.99,-175.9 -151.28,-892.23 -223.03,-1024.89 -73.48,122.98 -168.14,604.88 -170.97,722.85 -113.5,333.95 -185.87,736.18 -270.93,1106.73l-257.69 1062.63c-2.29,-5.37 -9.55,18.54 -14.68,27.14l-205.47 -2061.82 -92.44 -668.43c-72.78,159.1 14.77,-50 -23.94,55.39 -14.01,38.14 -12.67,41.26 -23.69,85.12l-130.08 613.98c-119.08,311.24 -239.11,915.29 -326.66,1291.3 -90.07,386.78 -189.63,944.4 -308.05,1291.14 -84.52,-229.93 -131.33,-1613.13 -178.41,-1986.33l-127.78 -1448.32c-197.35,529.68 -278.16,710.65 -276.56,1338.68l-55.11 1654.65 -686.18 -2694.72 -244.55 -839.4 -138.61 1012.72z"/>
    <path class="fil4" d="M4374.22 8574.83l2.62 1358.46c117.53,79.29 152.69,366.82 218.78,606.11l159.85 586.93c38.59,91.96 20.13,47.62 42.78,83.82l4.6 -996.16 -2.05 -853.58 404.29 654.48c87.17,-365.64 108.1,-883.64 149.52,-1266l115.63 -1126.61c15.77,-95.64 -8.54,20.64 12.17,-64.76 2.55,-10.51 6.03,-20.46 8.62,-29.64l20.81 -55.07c27.56,137.04 184.97,1812.09 178.89,1895.56l93.99 1330.74 388.84 -839.49c88.16,-299.65 82.08,-1287.66 99.99,-1674.64 15.19,-328.2 13.81,-1469.67 76.45,-1688.49 83.93,180.92 207.95,2671.84 282.13,3141.31 -1.99,176.87 36.63,204.38 108.85,346.35l157.07 277.17c3.94,4.98 12.1,14.51 18.68,21.26l131.43 -1444.72 255.69 -3261.64c-574.56,47.05 -1349.82,740.45 -1719.2,1174.92 -342.21,402.51 -929.12,1444.85 -1033.82,1894.24 -151.58,-12.61 -63.71,4.74 -176.61,-70.55z"/>
    <path class="fil4" d="M9139.53 8786.2l35.53 1619.64c161.6,-340.35 356.53,-1030.32 386.03,-1438.57 88.56,-412.12 352.95,-2320.3 457.8,-2534.95l392.52 2490.31 162.37 1174.89c85.02,-126.25 286.48,-944.2 289.99,-1134.06l353.98 -2999.19c-220.35,-18.46 -272.33,-158 -493.31,-176.39 -94.1,352.42 -435.99,304.56 -750.53,-25.57 -223.25,-234.32 -125.3,-397.76 -912.68,-397.76l78.3 3421.65z"/>
    <path class="fil4" d="M11668.03 9162.08c30.48,308.4 48.78,694.97 185.3,934.98 96.15,-153.53 148.81,-432.96 176.62,-634.79 81.99,-290.1 455.14,-1778.16 530.34,-1917 79.68,512.5 53.65,1803.42 210.26,2054.92 25.58,71.15 48.55,118.76 85.6,194.46l61.14 116.71c4.62,7.05 10.58,15.71 15.36,22.38 29.73,41.6 28.68,38.75 54.51,64.28l72.71 -520.28c46.89,-244.54 190.55,-1007.5 185.05,-1232.03 64.57,125.02 106.31,1194.02 106.57,1425.84l58.35 875.11c101.23,-177.29 191.72,-461.64 277.22,-645.03l0.8 -1820.69c-185.55,-213.04 -569.46,-718.43 -740.16,-847.43 -94.17,-71.16 -218.07,-177.69 -347.62,-219.24 -384.77,-123.42 -539.86,309.65 -744.97,-522.61 -57.51,-233.37 -268.11,-347.96 -482.99,-386.28l295.91 3056.7z"/>
    <path class="fil4" d="M7386.75 5505.66l565.84 4010.26 156.23 1109.56c7.22,54.02 13.4,135.49 23.46,186.01 6.22,31.29 12.57,60.55 24.28,90.53 27.3,69.94 13.73,45.96 47.96,89.13l194.47 -1525.1c111.61,-636.43 192.78,-1393.59 274.59,-2064.84 77.43,-635.24 235.03,-1474.39 254.51,-2071.94l-602.54 0c-100.1,149.5 -154.93,370.51 -352.77,423.33 -149.94,-40.03 -211.59,-165.72 -246.95,-317.5 -110.47,25.74 -212.28,67.22 -339.08,70.56z"/>
   </g>
   <path class="fil5" d="M70.38 10867.88c-121.9,315.59 182.17,1231.53 268.95,1495.12 391.39,1188.89 1455.03,2491.27 2906.23,2491.27l0 -326.86c-101.26,-47.01 -310.38,-222.27 -380.68,-311.28 -142.6,-180.56 -109.11,-313.92 -108.57,-596.56l0.04 -4233.35c0,-527 -65.35,-3819.16 60.52,-4173.12 137.9,-387.74 255.55,-760.89 605.07,-791.69 198.82,-336.06 272.4,-800.21 837.69,-1358.89 843.61,-833.75 1504.51,-1279.69 2737.61,-1636.84 1022.8,-296.25 1909.21,-339.96 2951.14,-223.95 1704.55,189.79 3641.77,1138.36 4445.43,2680.68 38.07,73.07 126.52,309.32 175.91,353.43l134.26 84.39c123.28,83.11 46.51,54.36 154.1,157.08 5.43,5.19 13.8,11.69 19.35,16.67 186.06,166.96 32.89,9.4 156.52,227.07 34.68,61.06 37.81,47.64 71.48,104.29 247.09,415.68 201.71,1076.58 200.49,1597.54l-0.01 7196.69c0.53,277.24 43.32,412.13 -109.26,594.02 -73.69,87.86 -262.13,282.19 -379.99,313.82l0 326.86c1055.53,0 1872.9,-680.01 2406.07,-1474.49 509.07,-758.55 839.49,-1814.96 839.49,-3078.29l-174.44 -39.18c-8.86,-49.9 -14.75,-104.67 -32.32,-149.76l-241.85 -501.82c-14.08,-43.12 -44.63,-153.62 -71.08,-201.89l-89.05 -239.69c-22.95,-98.29 -31.14,-130.62 -57.86,-224.09 -38.2,-133.66 -89.03,-273.78 -149.91,-407.78 -132.94,-292.6 -219.88,-531.19 -395.98,-760.58 -71.01,-92.5 -14.38,-5.3 -72.83,-110.16 -23.8,-42.71 -14.79,-37.67 -48.69,-91.57 -39.11,-62.17 -79.73,-94.92 -127.38,-148.4 -91.61,-102.82 -153.81,-220.01 -251.41,-312.56 -280.67,-266.16 -454.74,-299.94 -788.35,-660.07 -241.12,-260.28 190.93,-1077.21 -526.7,-2607.59 -521.37,-1111.83 -1303.03,-1801.31 -2295.58,-2362.97 -3267.81,-1849.16 -8291.5,-854.6 -9744.68,2429.46 -228.27,515.87 -426.28,1271.62 -413.39,1910.27 16.95,840.05 -110.26,719.43 -638.03,1131.71 -482.26,376.73 -857.61,950 -1093.52,1508.21 -169.05,399.99 -374.46,1227.05 -550.89,1499.78l-233.75 305.35c-58.24,198.46 5.85,394.72 5.85,599.72z"/>
   <path class="fil6" d="M7048.16 8837.86l-131.43 1444.72c-6.58,-6.75 -14.74,-16.28 -18.68,-21.26l-157.07 -277.17c-72.22,-141.97 -110.84,-169.48 -108.85,-346.35 -120.99,73.52 -161.2,253.8 -282.13,380.95 -50.26,-40.52 -111.98,-106.63 -176.44,-159.13l-388.84 839.49 -93.99 -1330.74 -69.64 -103.73 -386.52 1191.9c-157.29,-60.55 -295.4,-170.28 -431.72,-242.55l-4.6 996.16c-22.65,-36.2 -4.19,8.14 -42.78,-83.82l-159.85 -586.93c-66.09,-239.29 -101.25,-526.82 -218.78,-606.11l-0.16 1972.08 92.16 52.73 470.05 -64.55c72.39,83.58 51.06,102.05 125.01,103.4 16.34,-174.28 26.54,-89.2 48.85,-124.66l73.94 400.61c82.81,-20.54 27.66,1.35 88.31,-47.05 1.51,-1.2 77.13,-85.84 82.37,-92.7 70.38,-92.1 41.75,-93.93 151.72,-161.22l-3.08 -745.3 170.61 421.43c128.56,-12.51 34.89,8.16 132.9,-29.77 139.1,171.05 249.83,347.49 401.07,485.76l0.04 -909.58 269.72 281.32 62.06 -132.38c35.73,-122.05 29.18,-256.04 99.17,-426.21l551.06 785.94 138.61 -1012.72 244.55 839.4 470.87 -210.22 270.42 1250.29c-1.6,-628.03 79.21,-809 276.56,-1338.68l127.78 1448.32c149.48,-131.78 303.37,-816.72 450.79,-1045.92l39.13 37.4c117.59,132.66 173.57,326.7 323.2,412.41l130.08 -613.98c11.02,-43.86 9.68,-46.98 23.69,-85.12 38.71,-105.39 -48.84,103.71 23.94,-55.39l92.44 668.43c142.32,-194.82 128.77,-579.66 222.96,-797.94 251.68,288.32 375.44,704.24 525.81,663.26 2.83,-117.97 97.49,-599.87 170.97,-722.85 71.75,132.66 220.04,848.99 223.03,1024.89 171.9,-134.94 312.12,-754.08 488.91,-950.73 39.03,171.23 42.15,522.75 180.28,620.61 32.71,-147.16 108.02,-249.51 174.98,-393.63 99.91,-215.03 64.76,-198 198.87,-366.67l12.24 161.92c170.03,118.65 541.23,311.44 769.45,301.37l56.73 -287.49 95.58 207.79c19.42,63.29 52.26,162.69 69.74,209.62 190.25,25.93 211.12,85.36 371.32,-0.42l44.2 -306.3c81.38,103.48 46.24,116.52 156.73,188.59l118.88 -99.84 1.68 -1547.91c-85.5,183.39 -175.99,467.74 -277.22,645.03l-58.35 -875.11c-123.89,-59.57 -56.62,-26.39 -153.32,-116.53 -87.65,-81.71 -13.89,-71.24 -138.3,-77.28l-72.71 520.28c-25.83,-25.53 -24.78,-22.68 -54.51,-64.28 -4.78,-6.67 -10.74,-15.33 -15.36,-22.38l-61.14 -116.71c-37.05,-75.7 -60.02,-123.31 -85.6,-194.46 -209.34,67.83 -307.62,324.51 -504.91,426.25 -29.1,-109.9 -119.7,-519.75 -235.69,-564.17 -27.81,201.83 -80.47,481.26 -176.62,634.79 -136.52,-240.01 -154.82,-626.58 -185.3,-934.98 -182.86,156.62 -358.6,703.96 -520.25,842.76 -125.33,-287.71 -119.07,-832.71 -284.01,-1041.38 -3.51,189.86 -204.97,1007.81 -289.99,1134.06l-162.37 -1174.89c-225.56,128.02 -341.53,730.36 -533.63,941.83 -146.06,-256.06 -141.12,-687.66 -316.69,-897.19 -29.5,408.25 -224.43,1098.22 -386.03,1438.57l-35.53 -1619.64c-113.33,167.45 -347.99,1123.61 -384.84,1392.08l-38.19 -44.98c-4.81,-6.53 -12.23,-15.47 -17.23,-22.79 -108.81,-159.57 -185.76,-540.26 -300.28,-644.46l-194.47 1525.1c-34.23,-43.17 -20.66,-19.19 -47.96,-89.13 -11.71,-29.98 -18.06,-59.24 -24.28,-90.53 -10.06,-50.52 -16.24,-131.99 -23.46,-186.01l-156.23 -1109.56c-117.9,-101.88 -91.57,-200.69 -200.47,-273.23l-280.19 1021.11 -287.55 -1602.33c-21.92,33.58 -35.46,59.85 -58.54,89.75l-35.84 42.63c-4.34,5.14 -17.25,28.16 -20.52,21.9 -3.35,-6.4 -13.86,15.1 -21.32,22.11z"/>
   <path class="fil7" d="M13059.87 9477.74c124.41,6.04 50.65,-4.43 138.3,77.28 96.7,90.14 29.43,56.96 153.32,116.53 -0.26,-231.82 -42,-1300.82 -106.57,-1425.84 5.5,224.53 -138.16,987.49 -185.05,1232.03z"/>
  </g>
 </g>
</svg>
