<?xml version="1.0" encoding="UTF-8"?>
<svg xmlns="http://www.w3.org/2000/svg" width="100%" height="100%" viewBox="0 0 1175.26 1175.26" xmlns:xlink="http://www.w3.org/1999/xlink">
 <g>
  <path fill="red" fill-rule="nonzero" d="M-0 587.63c0,-162.55 57.44,-300.99 172.04,-415.59 114.6,-114.6 253.04,-172.04 415.59,-172.04 162.56,0 301,57.44 415.6,172.04 114.6,114.6 172.03,253.04 172.03,415.59 0,162.55 -57.43,300.99 -172.03,415.59 -114.6,114.6 -253.04,172.04 -415.6,172.04 -162.55,0 -300.99,-57.44 -415.59,-172.04 -114.6,-114.6 -172.04,-253.04 -172.04,-415.59zm388.51 402.32l164.17 0c0,-71.52 27.37,-162.01 82.09,-272.01 54.73,-109.72 130.32,-226.22 226.77,-348.94l0 -120.29 -505.54 0 0 120.29 385.25 0 -173.66 254.12c-71.26,103.76 -117.31,176.91 -137.9,219.45 -20.59,42.8 -34.41,91.84 -41.18,147.38z"/>
 </g>
</svg>
